<?xml version="1.0" standalone="no"?>
<!DOCTYPE svg PUBLIC "-//W3C//DTD SVG 20010904//EN"
 "http://www.w3.org/TR/2001/REC-SVG-20010904/DTD/svg10.dtd">
<svg version="1.0" xmlns="http://www.w3.org/2000/svg"
 width="2000.000000pt" height="2000.000000pt" viewBox="0 0 2000.000000 2000.000000"
 preserveAspectRatio="xMidYMid meet">
<metadata>
Created by potrace 1.14, written by Peter Selinger 2001-2017
</metadata>
<g transform="translate(0.000000,2000.000000) scale(0.100000,-0.100000)"
fill="#000000" stroke="none">
<path d="M8397 14454 c-1 -1 -281 -4 -622 -8 -341 -3 -658 -8 -705 -10 -47 -3
-139 -7 -205 -10 -138 -6 -300 -20 -300 -25 0 -1 -12 -4 -26 -6 -37 -5 -99
-14 -134 -21 -63 -11 -70 -13 -72 -14 -4 -3 -10 -5 -63 -15 -52 -10 -43 -8
-100 -24 -163 -46 -353 -131 -484 -219 -92 -61 -323 -292 -308 -307 3 -3 -2
-5 -12 -5 -9 0 -15 -4 -12 -8 2 -4 -9 -23 -25 -41 -16 -19 -29 -38 -29 -43 0
-5 -4 -6 -10 -3 -5 3 -10 -1 -10 -9 0 -8 -8 -21 -18 -28 -9 -7 -25 -24 -33
-38 -9 -14 -27 -37 -40 -52 -13 -15 -35 -41 -49 -59 -14 -17 -35 -43 -47 -57
-13 -14 -23 -29 -23 -35 0 -5 -13 -23 -30 -38 -16 -16 -41 -47 -56 -69 -15
-22 -31 -37 -37 -33 -6 3 -7 1 -3 -5 4 -7 2 -12 -5 -12 -7 0 -9 -3 -6 -7 4 -3
-5 -16 -18 -29 -14 -13 -25 -27 -25 -31 0 -4 -14 -22 -30 -40 -17 -18 -30 -37
-30 -43 0 -6 -5 -8 -10 -5 -6 4 -9 1 -8 -7 2 -7 -2 -12 -8 -11 -6 1 -11 -5
-11 -14 0 -11 12 -4 34 20 18 21 38 37 45 37 6 0 9 3 6 6 -6 5 51 65 118 124
19 16 32 30 28 30 -4 0 4 9 17 19 13 10 103 97 200 192 97 96 227 221 289 279
62 58 118 110 124 116 32 30 132 97 199 133 74 41 217 104 217 96 0 -2 15 2
34 10 18 8 44 16 57 19 13 3 57 14 97 25 40 10 73 19 75 19 1 1 9 3 17 6 17 5
85 18 115 21 11 2 44 5 73 8 29 3 57 9 62 12 6 3 10 1 10 -5 0 -6 5 -8 13 -3
15 9 12 9 132 18 55 4 125 9 155 11 30 3 91 7 135 9 44 2 134 7 200 11 251 14
595 9 705 -10 169 -30 164 -29 240 -50 88 -23 151 -51 246 -108 49 -29 91 -55
94 -58 3 -3 25 -18 50 -34 211 -136 464 -371 595 -550 16 -23 32 -43 35 -46 4
-3 10 -12 14 -20 8 -19 18 -33 86 -141 30 -47 60 -94 67 -105 87 -141 118
-190 125 -192 4 -2 8 -7 8 -12 0 -4 37 -68 82 -141 44 -74 86 -144 92 -156 6
-13 14 -23 19 -23 4 0 7 -4 7 -9 0 -5 24 -48 53 -96 81 -135 71 -118 236 -401
58 -98 113 -190 123 -203 10 -13 18 -27 18 -31 0 -4 -289 -8 -642 -8 -354 -1
-713 -4 -798 -7 -85 -2 -257 -6 -382 -7 -126 -2 -228 -5 -228 -8 0 -3 -44 -6
-98 -6 -53 -1 -185 -5 -292 -9 -107 -4 -247 -9 -310 -10 -63 -2 -117 -4 -120
-5 -14 -6 -47 -4 -62 3 -10 4 -18 4 -18 0 0 -5 -21 -9 -47 -9 -27 0 -118 -4
-203 -8 -85 -4 -207 -9 -270 -12 -63 -3 -158 -7 -211 -8 -53 -2 -101 -6 -107
-10 -6 -3 -13 -2 -17 4 -4 6 -11 7 -17 4 -6 -4 -45 -8 -87 -10 -98 -4 -258
-14 -341 -20 -36 -3 -89 -6 -117 -7 -29 -1 -53 -4 -53 -7 0 -3 -30 -6 -68 -8
-37 -1 -83 -5 -102 -8 -36 -5 -152 -16 -182 -18 -38 -1 14 -25 117 -52 46 -12
247 -74 254 -78 4 -3 18 -7 32 -10 38 -7 243 -78 254 -87 5 -5 14 -9 21 -9 6
0 29 -8 50 -17 22 -9 44 -18 49 -19 6 -1 30 -11 55 -22 45 -19 81 -34 90 -37
3 -1 22 -9 44 -18 21 -9 40 -17 43 -17 2 0 25 -9 50 -21 24 -11 79 -34 121
-51 43 -17 95 -38 117 -48 22 -9 56 -23 75 -30 69 -26 216 -98 283 -139 37
-22 69 -41 71 -41 10 0 176 -106 241 -153 93 -67 195 -137 201 -137 2 0 -16
19 -42 43 -26 23 -63 58 -83 77 -20 19 -63 58 -96 87 -33 28 -71 62 -85 74
-14 12 -41 33 -60 48 -19 14 -41 32 -48 39 -8 7 -30 25 -50 40 -37 27 -55 42
-102 82 -13 11 -63 47 -110 78 -47 31 -88 62 -92 67 -5 7 -8 7 -8 0 0 -6 -3
-6 -8 0 -6 9 -168 91 -277 141 -73 33 -331 136 -342 137 -7 0 -13 4 -13 9 0
19 56 29 245 44 33 3 134 6 225 9 91 2 165 4 165 5 0 3 76 7 320 15 127 4 233
9 236 11 4 2 78 6 164 9 87 3 161 8 166 10 4 3 10 1 14 -4 3 -7 15 -7 30 -1
16 6 27 6 31 -1 3 -6 10 -6 17 -1 11 8 126 13 379 16 49 1 88 5 88 9 0 4 9 3
20 -3 11 -6 20 -7 20 -3 0 4 69 9 153 10 83 1 307 4 497 7 419 7 1149 8 1435
1 116 -3 305 -7 421 -9 117 -2 217 -7 223 -10 6 -4 11 -2 11 4 0 6 5 8 11 4
11 -6 70 -8 426 -16 79 -2 143 -5 143 -8 0 -3 57 -6 128 -6 166 -2 675 -21
797 -29 39 -3 115 -7 170 -9 165 -7 327 -16 380 -22 28 -3 57 -6 65 -6 8 -1
24 -7 34 -14 19 -13 19 -13 0 -20 -10 -4 -38 -15 -61 -25 -23 -11 -45 -19 -48
-19 -3 0 -25 -8 -48 -18 -23 -10 -62 -27 -87 -37 -25 -10 -61 -25 -80 -33 -19
-9 -37 -17 -40 -17 -3 -1 -44 -20 -93 -43 -48 -22 -90 -41 -93 -41 -2 0 -12
-7 -20 -16 -9 -8 -22 -15 -30 -15 -8 0 -14 -3 -14 -8 0 -4 -15 -14 -32 -22
-28 -12 -257 -179 -294 -214 -6 -6 -24 -20 -39 -30 -14 -11 -36 -28 -48 -39
-12 -10 -37 -31 -56 -45 -19 -15 -45 -36 -57 -48 -13 -12 -58 -52 -101 -90
-42 -38 -95 -86 -117 -108 l-41 -39 43 24 c23 12 51 31 62 41 10 10 22 18 25
18 8 0 87 62 97 75 4 6 8 6 8 2 0 -4 10 1 22 13 12 11 27 20 34 20 7 0 14 4
16 9 2 4 35 26 73 48 39 22 81 46 95 54 14 8 28 18 31 22 3 5 10 9 15 9 8 0
70 32 114 59 29 17 85 40 102 42 9 1 14 5 12 9 -4 7 10 10 32 7 4 0 10 3 13 8
7 9 69 34 89 36 6 0 12 3 12 7 0 4 19 13 43 20 23 6 56 19 72 28 17 9 32 16
35 17 6 0 57 21 115 45 51 22 79 33 85 35 3 0 27 11 54 23 27 12 51 22 53 22
3 0 57 21 120 46 63 25 120 47 127 49 6 1 18 4 26 7 61 22 271 88 294 92 14 3
154 45 186 57 14 5 36 12 50 15 14 3 30 6 35 7 6 2 15 5 20 8 6 4 28 10 50 14
22 5 45 10 50 11 31 10 209 45 260 51 140 18 433 7 560 -20 17 -4 45 -9 64
-12 19 -3 42 -10 53 -16 10 -5 23 -7 28 -4 5 3 11 1 14 -4 5 -8 63 -25 79 -22
4 0 7 -3 7 -8 0 -6 8 -9 18 -9 16 1 138 -45 272 -103 98 -43 392 -190 458
-230 35 -21 68 -39 73 -39 5 0 9 -4 9 -10 0 -5 4 -10 10 -10 21 0 138 -88 175
-132 70 -84 85 -110 117 -202 34 -98 26 -161 -27 -224 -33 -39 -67 -58 -120
-66 -22 -4 -47 -8 -55 -11 -8 -2 -33 -6 -54 -10 -21 -3 -48 -7 -60 -10 -23 -5
-88 -15 -126 -20 -14 -2 -38 -5 -55 -9 -62 -11 -101 -18 -120 -21 -20 -2 -82
-14 -120 -22 -41 -8 -81 -15 -115 -18 -19 -2 -36 -4 -37 -5 -2 -2 -6 -3 -10
-4 -18 -5 -120 -26 -143 -30 -14 -2 -68 -14 -120 -26 -52 -12 -102 -23 -111
-25 -9 -2 -34 -8 -54 -14 -21 -6 -42 -8 -47 -5 -4 3 -8 0 -8 -7 0 -7 -2 -10
-5 -7 -3 3 -54 -8 -113 -24 -59 -16 -111 -30 -117 -32 -5 -1 -36 -10 -67 -19
-32 -10 -60 -18 -63 -18 -3 0 -25 -8 -51 -19 -25 -11 -50 -18 -55 -14 -5 3 -9
0 -9 -5 0 -6 -7 -11 -15 -11 -9 0 -35 -9 -57 -20 -23 -11 -46 -20 -51 -20 -16
0 -179 -82 -267 -134 -127 -75 -351 -234 -436 -311 -7 -5 -35 -30 -64 -55 -58
-49 -66 -56 -195 -175 -165 -152 -438 -435 -559 -580 -32 -38 -62 -71 -67 -73
-5 -2 -9 -8 -9 -14 0 -6 -10 -19 -22 -29 -11 -11 -18 -19 -14 -19 4 0 2 -9 -4
-20 -13 -24 4 -57 35 -67 42 -14 77 -12 212 12 16 3 44 8 63 11 19 3 42 7 50
9 8 2 33 7 55 10 23 3 52 8 65 10 14 3 41 8 60 11 19 3 43 7 53 10 10 3 32 8
50 10 18 2 48 7 67 9 19 3 60 10 90 16 30 5 66 12 80 13 14 2 34 6 45 9 11 3
38 9 60 12 23 3 52 7 65 10 45 9 134 25 174 31 21 3 48 8 60 10 11 2 37 7 56
10 19 3 42 7 50 9 8 3 33 7 55 10 22 3 51 7 65 10 80 16 90 17 90 6 0 -6 3
-10 8 -9 6 3 207 -147 240 -179 7 -7 17 -13 21 -13 4 0 16 -8 27 -19 27 -25
67 -46 79 -42 6 2 17 4 25 6 20 4 158 54 197 71 17 8 36 14 42 14 6 0 19 4 29
9 9 5 80 33 157 62 77 28 144 56 149 60 6 5 16 9 22 9 7 0 25 5 41 12 15 6 30
12 33 13 14 5 291 120 325 135 121 54 281 134 327 163 111 71 265 238 329 357
13 25 29 48 34 52 6 4 6 8 1 8 -5 0 -4 6 2 13 24 29 113 273 106 292 -3 7 -1
15 4 18 4 4 9 -22 9 -57 1 -35 4 -103 7 -152 7 -102 17 -254 21 -334 3 -54 11
-183 21 -345 3 -44 7 -118 9 -165 6 -119 13 -232 19 -320 8 -99 17 -247 21
-340 3 -73 9 -165 21 -345 6 -86 9 -133 18 -325 2 -47 7 -115 10 -152 l7 -66
-33 -7 c-18 -4 -46 -8 -63 -10 -18 -1 -36 -4 -41 -7 -5 -3 -38 -9 -74 -13 -36
-4 -68 -9 -71 -10 -3 -2 -28 -7 -55 -11 -27 -3 -56 -7 -64 -9 -22 -4 -122 -19
-142 -21 -30 -3 -31 -4 -18 -19 7 -8 16 -13 20 -10 4 2 59 -4 121 -15 63 -11
132 -22 154 -26 21 -3 43 -8 47 -10 5 -3 21 -8 36 -11 34 -6 44 -9 62 -16 13
-4 63 -18 80 -21 3 -1 38 -15 78 -31 76 -31 169 -105 157 -125 -3 -5 -2 -10 3
-10 8 0 32 -65 37 -100 1 -8 5 -22 8 -30 27 -74 24 -164 -8 -245 -44 -111 -71
-143 -180 -217 -110 -75 -179 -105 -264 -116 -67 -8 -358 -8 -491 2 -182 12
-261 20 -407 41 -91 13 -111 16 -158 21 -89 10 -100 12 -100 14 0 1 -16 4 -35
5 -19 2 -69 13 -110 25 -41 12 -81 22 -87 22 -7 1 -13 5 -13 10 0 4 -7 8 -16
8 -20 0 -134 61 -134 72 0 4 -4 8 -10 8 -5 0 -18 8 -28 18 -10 9 -39 36 -65
59 -26 22 -47 47 -47 54 0 7 -3 10 -6 6 -3 -3 -29 22 -57 56 -28 34 -58 69
-67 78 -16 17 -26 29 -80 99 -19 25 -37 47 -40 50 -16 15 -90 120 -90 128 0 5
-10 17 -21 28 -22 19 -22 19 -14 -6 3 -14 14 -36 24 -50 15 -22 144 -277 147
-290 0 -3 15 -36 33 -75 78 -167 86 -197 86 -350 -1 -77 -4 -156 -8 -175 -26
-117 -32 -125 -107 -135 -23 -3 -46 -8 -51 -11 -5 -3 -9 0 -9 6 0 6 -5 8 -12
3 -7 -4 -40 -8 -73 -9 -463 -9 -845 -16 -904 -16 l-75 0 -45 49 c-26 28 -80
88 -121 134 -41 46 -102 112 -136 148 l-61 64 -64 0 c-35 0 -156 -3 -269 -7
-113 -4 -261 -9 -330 -11 -69 -2 -224 -6 -345 -9 -270 -8 -760 -16 -1115 -20
-147 -1 -272 -6 -280 -11 -9 -5 -11 -4 -6 3 5 9 1 10 -16 3 -13 -4 -32 -5 -43
-1 -11 4 -24 5 -30 2 -5 -3 -84 -7 -175 -8 -153 -2 -310 -5 -1110 -20 -162 -4
-415 -7 -562 -8 -148 0 -268 -4 -268 -8 0 -7 -47 -1 -62 8 -4 3 -8 1 -8 -3 0
-5 -111 -10 -247 -12 -137 -2 -315 -5 -398 -6 -175 -5 -706 -15 -983 -20 -106
-1 -195 -5 -198 -8 -3 -2 -20 -1 -37 3 -18 4 -43 3 -55 -1 -14 -5 -22 -4 -22
2 0 6 -5 7 -11 3 -7 -4 -82 -9 -168 -10 -86 -2 -253 -6 -371 -9 -118 -3 -296
-7 -395 -9 -317 -7 -520 -17 -530 -27 -5 -5 2 -9 20 -10 29 0 179 -5 447 -13
69 -2 131 -7 136 -10 6 -3 13 -2 17 4 4 6 12 7 18 3 6 -4 81 -8 167 -9 165 -3
394 -9 655 -20 88 -3 226 -7 308 -8 81 -2 150 -6 153 -9 3 -3 17 -2 30 3 13 5
24 6 24 2 0 -4 53 -8 118 -8 111 -1 355 -9 672 -20 80 -3 217 -7 305 -9 206
-5 444 -12 670 -20 201 -7 411 -14 620 -19 414 -12 564 -17 700 -22 83 -4 220
-8 305 -10 85 -2 220 -5 300 -8 180 -6 525 -16 687 -20 67 -2 126 -7 132 -10
5 -4 12 -2 16 4 4 6 12 7 18 3 6 -4 61 -8 122 -9 60 -1 232 -5 380 -10 149 -4
298 -8 332 -8 35 -1 63 -3 63 -6 0 -3 87 -6 193 -7 105 -1 268 -4 360 -7 150
-4 170 -7 185 -24 97 -111 132 -150 162 -183 19 -21 42 -46 50 -56 8 -10 36
-43 63 -74 l47 -56 1218 4 c2010 6 1903 5 1934 28 15 11 28 27 28 36 0 9 3 19
8 23 4 4 7 11 8 14 1 17 17 78 22 87 4 6 7 15 8 20 1 6 16 62 34 125 34 121
54 170 70 170 20 0 208 151 271 217 65 69 136 163 123 163 -3 0 -2 6 4 12 24
30 44 135 47 242 4 193 -27 375 -85 493 -18 35 -43 76 -57 91 -93 100 -99 112
-101 197 -2 44 -5 116 -8 160 -3 44 -7 124 -7 177 -1 54 -4 98 -7 98 -3 0 -5
47 -5 105 0 58 -2 105 -5 105 -3 0 -6 19 -6 43 0 23 -4 89 -7 147 -4 58 -9
143 -12 190 -10 150 -13 203 -20 285 -8 95 -14 177 -19 263 -2 35 -7 87 -10
115 -7 69 -18 201 -21 257 -1 25 -4 45 -5 45 -1 0 -3 25 -5 55 -2 30 -5 69 -8
85 -6 33 -19 171 -21 225 -1 20 -4 40 -7 45 -3 6 -6 26 -7 45 -1 19 -7 76 -13
125 -6 50 -12 104 -14 120 -1 17 -5 41 -8 55 -3 14 -8 45 -11 70 -11 87 -26
185 -50 322 -12 67 -51 231 -68 288 -40 136 -106 239 -221 345 -101 93 -118
107 -190 157 -34 24 -65 48 -69 53 -5 7 -8 7 -8 0 0 -5 -4 -5 -8 1 -19 30
-473 271 -582 309 -3 1 -18 7 -33 13 -16 7 -33 12 -38 12 -5 0 -9 4 -9 9 0 5
21 8 48 6 26 -2 149 -5 274 -7 126 -2 228 -6 228 -10 0 -4 14 -3 30 2 19 5 30
5 30 -1 0 -6 5 -7 11 -3 7 4 52 8 101 10 97 4 153 16 210 45 21 11 38 16 38
12 0 -5 4 -3 8 3 4 6 26 23 50 38 36 23 160 140 198 188 51 65 197 298 186
298 -4 0 -2 4 4 8 12 8 40 66 65 134 17 48 16 102 -3 126 -6 6 -7 12 -4 12 19
0 -102 118 -129 126 -11 4 -27 12 -36 20 -8 7 -26 16 -40 18 -13 2 -24 5 -24
6 0 27 -736 14 -960 -16 -22 -3 -58 -7 -80 -9 -22 -2 -40 -4 -40 -5 0 -1 -15
-4 -34 -7 -121 -17 -387 -113 -399 -144 -2 -5 -8 -9 -14 -9 -29 0 -162 -130
-352 -344 l-34 -39 -25 29 c-14 16 -35 41 -48 55 -13 14 -51 56 -84 93 -33 38
-76 85 -96 107 -19 21 -52 57 -73 81 -59 68 -214 235 -296 318 -85 87 -209
221 -272 295 -57 66 -409 416 -484 481 -106 92 -128 109 -214 170 -127 90
-226 154 -239 154 -6 0 -11 4 -11 9 0 5 -8 11 -17 14 -10 3 -50 24 -90 46 -99
53 -317 141 -390 156 -10 2 -30 8 -45 14 -16 6 -28 9 -28 7 0 -2 -21 2 -47 10
-42 13 -94 22 -173 30 -14 1 -25 3 -25 4 0 2 -56 6 -225 15 -223 11 -345 15
-547 18 -106 1 -193 6 -193 10 0 4 -7 4 -16 -1 -8 -5 -35 -6 -60 -2 -24 4 -44
3 -44 -1 0 -4 -12 -4 -27 0 -16 4 -228 8 -473 10 -482 3 -2081 7 -2083 5z
m2610 -454 c17 -19 53 -58 79 -86 144 -151 351 -398 434 -519 14 -20 30 -42
35 -48 27 -33 55 -77 55 -87 0 -5 4 -10 10 -10 5 0 9 -3 8 -7 -2 -11 25 -67
37 -75 19 -14 -6 -8 -43 10 -47 23 -135 74 -142 82 -3 4 -12 9 -20 12 -14 5
-176 123 -190 138 -4 4 -87 74 -145 122 -101 83 -221 183 -225 188 -5 6 -216
178 -235 192 -5 4 -26 20 -45 36 -19 15 -51 39 -70 53 l-35 24 85 5 c47 3 151
5 231 5 l145 0 31 -35z m993 -15 c22 -4 77 -19 85 -24 6 -3 12 -6 15 -6 19 -3
80 -31 80 -37 0 -4 3 -7 8 -6 14 3 56 -17 177 -82 33 -18 68 -39 78 -48 9 -8
17 -12 17 -8 0 4 6 2 13 -4 43 -37 61 -50 66 -50 3 0 17 -10 31 -22 14 -13 50
-42 80 -65 30 -23 69 -55 86 -70 17 -15 49 -43 70 -62 181 -157 447 -421 644
-641 47 -52 91 -101 98 -109 61 -65 158 -193 206 -271 33 -52 88 -141 123
-197 36 -56 62 -106 59 -111 -13 -22 -155 29 -207 74 -8 8 -21 14 -27 14 -7 0
-12 3 -12 8 0 4 -15 15 -33 25 -18 10 -45 28 -59 40 -14 12 -36 29 -48 37 -90
62 -196 154 -390 340 -606 580 -996 972 -1034 1039 -5 9 -15 21 -21 26 -21 18
-82 99 -115 152 -30 49 -33 83 -7 66 7 -4 14 -8 17 -8z m4285 -3578 c-7 -156
-19 -262 -32 -297 -4 -8 -5 -19 -4 -24 1 -4 -2 -13 -7 -20 -5 -6 -12 -24 -16
-41 -12 -49 -86 -195 -144 -285 -31 -47 -96 -126 -146 -176 -85 -85 -100 -95
-236 -161 -128 -63 -228 -106 -455 -194 -33 -13 -64 -24 -70 -26 -5 -1 -41
-14 -80 -28 -122 -47 -408 -146 -465 -162 l-56 -16 -54 39 c-30 21 -73 52 -96
69 -22 16 -53 39 -68 50 -16 11 -34 26 -41 33 -8 6 -17 12 -21 12 -4 0 -18 10
-32 23 -19 17 -34 22 -75 21 -46 -1 -102 -9 -102 -14 0 -1 -13 -3 -30 -5 -16
-1 -37 -4 -45 -7 -13 -5 -270 -55 -325 -64 -11 -2 -31 -6 -45 -9 -14 -3 -41
-8 -60 -11 -55 -7 -79 -12 -87 -17 -5 -3 -30 -8 -58 -11 -27 -4 -70 -12 -95
-17 -25 -6 -81 -17 -125 -25 -103 -20 -102 -20 -158 -29 -26 -4 -49 -11 -52
-15 -3 -5 -14 -6 -25 -3 -20 5 -20 6 -2 22 10 9 31 33 46 53 28 38 56 51 136
64 68 11 82 13 121 17 20 2 40 7 45 9 8 5 74 18 114 23 8 1 40 7 70 13 30 6
73 14 95 17 23 3 52 8 65 10 14 3 41 8 60 11 19 3 42 7 50 9 8 3 32 7 54 11
21 3 48 8 60 10 43 9 152 26 171 28 11 1 25 4 30 8 11 7 117 21 155 21 15 0
88 -43 185 -109 176 -119 195 -126 270 -89 22 10 46 18 53 17 6 -2 12 2 12 8
0 5 3 9 8 8 4 0 14 2 22 5 32 14 76 30 85 33 10 2 348 137 395 157 14 6 27 11
30 12 3 1 25 10 50 20 25 11 47 18 49 16 2 -1 7 1 10 6 7 10 111 53 129 53 6
0 12 5 12 10 0 6 4 10 10 10 14 0 145 63 148 72 2 4 10 8 18 8 44 0 264 260
279 330 1 3 13 30 28 60 33 69 68 212 72 290 0 8 3 20 6 25 3 6 4 58 4 117 -2
116 -1 118 57 123 10 1 20 4 22 6 2 2 23 5 45 6 l42 3 -6 -113z m-335 51 c0
-5 5 -6 10 -3 6 3 10 1 10 -5 0 -6 5 -8 10 -5 6 3 10 -1 10 -9 0 -9 5 -16 10
-16 6 0 10 -42 10 -105 0 -58 -3 -105 -8 -105 -4 0 -8 -13 -8 -29 -2 -46 -25
-131 -36 -131 -5 0 -6 -5 -2 -11 9 -15 -71 -171 -107 -209 -16 -16 -29 -35
-29 -41 0 -6 -7 -9 -14 -6 -10 4 -13 1 -10 -7 3 -7 -5 -20 -18 -28 -13 -9 -36
-27 -53 -41 -20 -18 -33 -23 -41 -16 -8 7 -11 5 -10 -7 0 -9 -8 -21 -19 -28
-11 -6 -23 -15 -26 -20 -4 -5 -11 -6 -17 -2 -5 3 -13 -1 -16 -10 -4 -9 -13
-14 -21 -10 -9 3 -18 -1 -21 -9 -3 -7 -19 -17 -35 -20 -16 -4 -29 -11 -29 -17
0 -6 -3 -9 -6 -5 -3 3 -26 -3 -50 -13 -24 -11 -44 -15 -44 -10 0 6 -4 10 -10
10 -5 0 -7 -7 -3 -17 5 -13 2 -15 -16 -10 -13 3 -20 3 -17 0 7 -7 -89 -53
-110 -53 -8 0 -14 -3 -14 -8 0 -11 -99 -44 -110 -37 -6 4 -9 1 -8 -6 2 -7 -1
-14 -7 -14 -13 -2 -40 -13 -85 -33 -19 -9 -43 -17 -53 -19 -10 -2 -29 -10 -42
-19 -13 -8 -28 -16 -32 -16 -4 0 -18 -4 -31 -9 -13 -5 -28 -9 -33 -9 -5 0 -9
-4 -9 -8 0 -5 -6 -9 -12 -10 -26 -2 -46 -8 -59 -18 -8 -6 -31 -15 -53 -22 -33
-9 -42 -8 -65 8 -33 24 -276 177 -318 201 -17 9 -33 16 -35 14 -1 -2 -21 -6
-43 -9 -23 -4 -50 -8 -62 -10 -46 -9 -100 -18 -128 -22 -39 -5 -86 -14 -105
-21 -8 -3 -31 -7 -50 -9 -42 -5 -65 -9 -105 -17 -16 -3 -48 -9 -70 -12 -22 -3
-47 -7 -55 -10 -8 -2 -33 -6 -55 -10 -39 -5 -191 -33 -230 -41 -11 -3 -36 -7
-55 -9 -48 -6 -78 -13 -90 -20 -6 -3 -10 -2 -10 4 0 16 229 240 356 348 12 10
45 39 75 65 58 50 158 130 203 163 16 11 34 25 40 30 7 6 21 15 31 22 11 7 53
33 94 59 59 38 75 44 83 33 8 -11 9 -11 5 2 -4 12 8 23 46 40 28 13 55 23 59
21 4 -1 8 3 8 9 0 5 4 8 9 5 5 -3 14 1 21 9 13 15 30 12 30 -6 0 -5 -7 -9 -16
-7 -10 2 -19 -3 -21 -10 -3 -8 2 -10 14 -6 15 5 16 4 3 -5 -8 -7 -28 -19 -44
-27 -26 -15 -28 -15 -23 0 3 8 2 18 -4 21 -5 4 -9 3 -8 -2 5 -28 -1 -35 -18
-22 -15 11 -16 11 -6 0 6 -7 9 -20 6 -29 -5 -11 -3 -13 7 -7 10 6 12 4 7 -9
-5 -11 -3 -15 4 -10 7 4 10 1 7 -7 -3 -8 -14 -13 -24 -11 -15 2 -16 1 -4 -7 8
-5 18 -7 22 -5 4 3 8 1 8 -4 0 -5 11 -8 25 -7 14 2 28 -2 32 -7 4 -7 1 -8 -7
-3 -10 6 -12 3 -7 -11 7 -18 6 -18 -7 -1 -14 18 -32 24 -21 8 3 -5 1 -13 -5
-16 -6 -4 -9 -1 -8 6 2 7 -3 14 -9 15 -7 1 -14 2 -15 4 -8 5 -39 7 -33 2 4 -4
11 -8 16 -8 22 -3 23 -5 9 -15 -13 -9 -13 -10 2 -6 9 3 22 -2 30 -10 11 -14
11 -16 -4 -10 -13 4 -15 2 -11 -11 6 -15 5 -16 -12 -2 -17 14 -18 14 -6 -9 7
-13 16 -20 20 -15 10 15 31 15 53 0 l20 -14 -22 -12 c-13 -7 -20 -8 -16 -2 8
14 -11 25 -25 16 -8 -5 -7 -10 4 -16 9 -5 14 -15 11 -23 -7 -18 12 -20 22 -3
5 7 2 8 -7 3 -8 -5 -11 -4 -6 1 5 5 13 10 18 10 5 1 10 2 12 4 9 7 37 7 37 -1
0 -8 -14 -12 -25 -6 -12 6 -33 -39 -24 -54 4 -9 5 -19 1 -23 -3 -4 1 -4 10 -1
9 4 19 2 23 -4 3 -6 -1 -11 -11 -11 -10 0 -15 -3 -11 -6 3 -4 14 -3 24 1 43
19 63 2 43 -35 -6 -10 -10 -22 -10 -27 1 -4 8 5 16 20 9 16 20 25 27 21 26
-15 46 -37 41 -45 -3 -5 0 -9 5 -9 14 0 14 17 0 26 -8 5 -6 10 6 16 11 7 21 6
28 -2 9 -8 8 -10 -3 -7 -8 2 -12 2 -7 0 4 -3 7 -11 7 -18 0 -17 24 -25 41 -14
11 8 10 9 -5 7 -10 -2 -21 2 -23 8 -2 5 8 10 22 10 14 0 25 -4 25 -8 0 -4 8
-8 17 -8 15 0 14 2 -2 14 -11 8 -24 12 -29 9 -5 -4 -6 0 -1 8 8 12 6 12 -8 0
-9 -7 -17 -11 -17 -8 0 3 -3 12 -6 21 -3 9 -1 16 6 16 6 0 8 -5 4 -12 -5 -7
-2 -9 7 -6 8 3 23 0 34 -8 21 -16 39 -19 31 -5 -3 4 3 18 13 30 20 23 41 30
22 7 -8 -10 -9 -16 -1 -21 5 -3 10 -2 10 2 0 5 9 9 19 10 14 1 19 -4 16 -18
-2 -10 -6 -23 -10 -28 -3 -5 -1 -13 5 -16 6 -4 10 -3 9 2 -4 21 3 31 19 28 9
-1 22 2 29 7 7 5 18 6 25 2 11 -6 11 -5 0 8 -10 13 -10 17 2 21 8 3 17 -1 19
-9 3 -9 4 -8 3 3 -1 11 -9 17 -19 15 -10 -2 -15 2 -12 10 6 16 46 22 42 6 -1
-6 4 -12 11 -14 7 -1 8 0 2 3 -16 8 -1 23 18 17 14 -5 14 -4 2 4 -8 6 -18 8
-24 5 -5 -4 -7 1 -3 10 3 9 1 19 -5 23 -7 5 -8 2 -3 -6 6 -9 4 -11 -5 -5 -9 6
-11 4 -5 -5 6 -9 4 -11 -5 -5 -9 6 -11 4 -5 -4 6 -10 3 -11 -14 -2 -24 13 -28
23 -6 15 11 -5 13 -2 9 10 -3 9 -11 13 -17 9 -6 -4 -7 -1 -2 7 6 10 10 10 20
-3 8 -11 15 -13 22 -6 6 6 19 1 37 -16 15 -14 31 -23 36 -20 4 3 11 0 13 -5 3
-6 4 -5 3 2 -2 7 -9 12 -15 11 -6 -2 -11 4 -11 12 0 8 4 15 9 15 16 0 40 -41
34 -57 -3 -8 0 -13 8 -11 8 2 13 -4 11 -14 -1 -9 1 -19 6 -22 12 -7 8 25 -6
50 -6 12 -9 24 -6 26 9 9 13 49 4 43 -4 -3 -6 5 -3 17 4 14 2 20 -3 15 -5 -5
-9 -13 -9 -19 0 -6 -11 -13 -25 -15 -17 -2 -21 0 -11 6 9 6 10 11 2 15 -6 4
-11 4 -12 -1 -3 -35 -19 -72 -19 -45 0 7 -9 21 -20 32 -12 12 -18 25 -15 30 7
11 46 9 63 -3 18 -14 15 1 -10 41 -12 20 -16 32 -8 27 10 -6 12 -4 7 9 -4 11
-3 15 4 11 6 -4 8 -14 5 -22 -3 -8 0 -23 7 -33 10 -14 14 -15 24 -5 6 7 10 15
8 17 -2 2 10 4 27 5 17 0 27 -2 22 -6 -5 -3 -16 -14 -23 -24 -13 -16 -13 -18
0 -16 20 3 50 -11 43 -22 -8 -13 10 -11 24 3 9 9 12 9 12 0 0 -7 -5 -12 -12
-12 -6 0 -8 -3 -5 -7 4 -3 2 -12 -4 -20 -8 -9 -8 -13 -1 -13 20 0 42 42 32 60
-7 13 -5 16 10 15 11 -1 23 -5 27 -9 5 -4 4 -6 -2 -4 -5 2 -11 -1 -12 -5 -1
-4 -8 -19 -17 -32 -14 -21 -14 -24 1 -37 14 -11 16 -11 11 3 -3 9 -2 22 4 30
8 11 9 10 4 -4 -3 -10 3 -26 14 -37 24 -24 49 -28 30 -5 -7 9 -10 18 -7 22 4
3 9 -2 13 -11 3 -9 10 -13 15 -10 12 7 -32 -69 -46 -78 -18 -13 -22 -9 -20 26
1 30 -2 33 -17 25 -25 -14 -32 -29 -18 -42 10 -9 12 -8 7 5 -8 23 9 33 17 11
5 -11 -1 -24 -16 -36 -18 -14 -18 -16 -3 -9 13 7 26 7 38 0 11 -6 17 -6 14 0
-4 5 5 14 19 21 32 14 34 14 28 -2 -6 -17 41 -62 51 -48 3 6 14 11 23 11 14 0
12 -4 -6 -18 -23 -18 -23 -19 -5 -33 16 -13 17 -12 5 2 -10 14 -10 18 3 23 8
3 15 1 15 -4 0 -6 5 -10 11 -10 8 0 7 6 -2 17 -12 15 -12 16 4 10 11 -4 16 -3
12 3 -3 6 1 10 10 10 9 0 14 -4 10 -9 -6 -11 33 -26 42 -17 4 3 -1 6 -10 6
-30 0 -18 17 13 18 17 0 30 -4 30 -9 0 -6 -5 -7 -10 -4 -6 4 -10 3 -9 -2 4
-21 -2 -34 -13 -27 -6 4 -8 3 -5 -4 4 -5 16 -8 28 -5 14 4 17 8 9 13 -9 6 -9
9 -1 15 7 4 9 16 5 28 -6 19 -5 20 10 8 13 -11 19 -11 31 -1 18 15 19 1 1 -22
-7 -10 -16 -15 -19 -11 -4 3 -7 2 -7 -4 0 -5 16 -10 35 -10 21 0 31 4 23 8 -6
4 -16 5 -20 3 -4 -3 -8 -1 -8 5 0 16 22 24 30 11 10 -17 31 -3 23 15 -3 9 1
15 11 15 9 0 16 4 16 8 0 5 -7 9 -15 9 -8 0 -15 -5 -15 -11 0 -5 -7 -1 -16 10
-14 18 -15 18 -4 -4 14 -28 8 -39 -10 -17 -7 8 -9 15 -5 15 4 0 2 6 -4 14 -9
10 -9 16 -1 21 8 5 6 11 -6 19 -13 10 -14 15 -4 21 9 5 11 4 6 -3 -4 -7 -1
-12 8 -12 9 0 16 -5 16 -12 0 -9 3 -9 11 -1 6 6 19 9 28 5 14 -5 14 -4 1 14
-14 18 -14 18 5 3 22 -18 58 -21 52 -5 -2 6 -11 10 -21 8 -18 -3 -19 -1 -10
23 6 14 8 13 21 -5 8 -11 19 -20 25 -20 6 0 3 10 -8 22 -15 19 -16 20 -1 9 19
-15 24 -2 5 17 -9 9 -9 12 0 12 7 0 12 -5 12 -11 0 -5 4 -7 10 -4 5 3 7 0 4
-9 -4 -10 0 -13 13 -11 10 2 20 4 23 4 3 1 -1 5 -9 10 -12 8 -12 12 -2 25 8 9
20 16 28 16 8 0 11 5 8 10 -3 6 -1 10 4 10 6 0 11 -4 11 -10 0 -5 6 -7 14 -4
8 3 17 1 21 -5 4 -7 -1 -9 -12 -5 -15 5 -16 4 -3 -5 10 -7 11 -11 3 -11 -7 0
-12 -3 -12 -7 3 -20 -2 -34 -11 -28 -5 3 -7 12 -4 19 3 8 1 17 -4 20 -15 9
-43 -4 -36 -16 4 -6 9 -6 14 2 5 9 9 9 14 1 4 -6 1 -11 -6 -11 -10 0 -9 -3 2
-11 13 -9 12 -10 -3 -5 -12 4 -16 2 -11 -6 5 -7 3 -8 -6 -3 -8 5 -11 4 -6 -3
4 -7 -1 -10 -14 -7 -13 3 -18 0 -14 -7 5 -7 2 -8 -6 -3 -9 6 -11 4 -5 -5 5 -9
4 -11 -3 -6 -8 5 -10 1 -6 -11 3 -10 2 -14 -3 -8 -10 13 -36 19 -29 7 3 -5 -6
-8 -19 -6 -14 1 -23 -2 -20 -6 3 -5 13 -6 23 -3 14 5 15 3 5 -8 -7 -7 -13 -17
-13 -22 0 -5 6 -7 13 -4 6 2 22 0 34 -4 15 -6 22 -5 20 3 -1 6 4 13 12 16 8 2
11 0 7 -6 -7 -12 20 -10 31 3 4 4 3 5 -4 2 -6 -4 -13 -1 -16 5 -3 10 -9 10
-29 -1 -15 -7 -31 -10 -37 -6 -13 7 -5 25 10 25 6 0 7 -5 3 -11 -3 -6 5 -3 20
6 18 12 30 14 39 8 14 -12 48 -13 41 -2 -2 4 2 9 8 12 7 3 3 4 -9 4 -12 -1
-19 -5 -17 -9 6 -9 -10 -11 -19 -2 -3 3 -4 11 -1 18 8 20 51 12 74 -14 l22
-25 -21 32 c-23 34 -28 54 -9 35 7 -7 16 -12 22 -12 5 0 2 6 -8 13 -25 18 -11
51 16 36 15 -8 23 -8 32 1 8 9 7 11 -4 10 -26 -4 -44 0 -36 7 11 12 40 12 53
1 9 -7 13 -7 13 1 0 6 -5 11 -11 11 -5 0 -7 4 -4 10 3 5 0 7 -8 4 -8 -3 -14 2
-14 11 0 9 6 14 14 11 24 -10 44 5 37 28 -5 17 -4 19 7 9 7 -7 17 -13 22 -13
5 0 -6 12 -23 26 -17 15 -34 24 -37 20 -4 -3 0 -6 8 -6 10 -1 9 -4 -4 -11 -9
-6 -16 -13 -13 -17 2 -4 -3 -14 -12 -22 -14 -13 -15 -12 -8 5 6 16 5 17 -5 8
-9 -9 -9 -15 0 -26 9 -11 8 -17 -5 -28 -15 -12 -16 -11 -9 11 7 22 6 23 -8 12
-12 -10 -21 -11 -34 -3 -10 6 -13 11 -6 11 7 0 10 7 7 15 -4 8 -11 12 -17 8
-6 -4 -7 -1 -2 6 5 9 13 6 28 -10 l21 -22 9 21 c5 12 17 22 26 24 11 3 13 6 4
11 -7 4 -21 -2 -34 -15 l-21 -23 11 23 c6 12 16 23 21 23 6 1 16 2 22 3 7 0
14 10 16 21 2 11 0 16 -5 10 -4 -5 -17 -11 -28 -13 -19 -2 -19 -2 -2 9 11 6
26 12 35 13 9 2 18 9 20 16 3 7 0 10 -7 6 -6 -4 -11 -2 -11 3 0 6 5 11 11 11
5 0 7 5 4 10 -5 8 -11 7 -21 -1 -10 -8 -14 -8 -14 0 0 6 5 11 11 11 8 0 8 4 0
14 -9 11 -9 16 0 22 8 4 9 3 5 -4 -4 -7 -3 -12 2 -12 17 0 22 13 10 27 -8 11
-8 17 2 26 10 9 14 9 17 -1 3 -6 9 -10 14 -6 5 3 9 2 8 -3 -1 -4 -1 -10 1 -13
1 -3 3 -16 6 -30 3 -19 2 -21 -6 -10 -7 12 -9 10 -7 -7 1 -18 4 -20 16 -10 11
10 13 9 9 -3 -3 -8 -15 -14 -27 -13 -13 2 -20 -1 -16 -7 3 -6 14 -10 23 -10
13 0 13 -2 -3 -14 -11 -8 -23 -12 -27 -10 -5 3 -8 1 -8 -3 0 -5 10 -14 21 -22
17 -10 23 -10 29 0 5 7 6 18 3 25 -2 6 1 15 6 19 6 3 9 11 6 16 -4 5 1 9 9 9
9 0 16 -4 16 -10 0 -5 6 -10 13 -10 6 1 2 9 -11 20 -15 12 -18 20 -10 23 7 2
5 3 -5 1 -10 -1 -16 3 -14 9 2 7 11 11 20 11 9 -1 15 2 12 6 -3 5 1 11 7 13
10 4 10 8 -2 16 -8 5 -18 7 -23 4 -5 -3 -7 0 -5 8 5 14 9 14 38 6 8 -2 12 -2
8 0 -4 2 -6 10 -4 16 1 7 1 9 -1 5 -11 -19 -23 -6 -12 13 8 15 8 19 0 15 -6
-4 -11 -3 -11 3 0 5 -9 9 -20 8 -11 -1 -20 -5 -20 -9 0 -8 16 -12 33 -9 9 1 9
-13 0 -22 -3 -4 -11 -3 -17 3 -7 5 -17 5 -26 -2 -12 -8 -11 -9 5 -3 11 3 16 3
13 -1 -4 -4 -3 -15 2 -25 7 -12 7 -20 0 -24 -5 -3 -10 2 -10 13 0 10 -10 24
-22 30 -13 6 -17 11 -10 11 7 1 10 6 7 11 -4 6 -12 7 -18 3 -7 -3 -4 3 7 15
16 18 17 24 6 38 -8 9 -10 18 -4 22 15 11 14 44 -1 38 -10 -3 -12 0 -8 11 5
12 3 14 -7 8 -9 -5 -7 0 3 16 26 37 19 47 -9 14 -20 -23 -23 -25 -14 -7 9 18
9 27 -1 38 -8 10 -8 14 0 14 8 0 8 6 -1 20 -7 11 -18 20 -24 20 -19 0 -46 48
-32 56 6 4 9 3 5 -2 -3 -5 0 -16 6 -25 15 -19 47 -32 47 -19 0 6 -7 10 -15 10
-14 0 -17 4 -19 32 -1 11 33 18 97 22 15 0 27 4 27 8 0 3 8 5 18 3 9 -1 23 2
30 8 8 6 12 5 12 -4 0 -10 3 -10 8 -3 13 21 212 41 212 22z m-446 -98 c-8 -8
-15 -5 -25 7 -13 17 -13 17 5 3 18 -14 19 -13 12 5 -6 16 -5 18 5 8 9 -9 10
-16 3 -23z m22 -50 c0 -22 -2 -40 -6 -40 -3 0 -6 18 -6 40 0 22 2 40 6 40 3 0
6 -18 6 -40z m34 9 c0 -5 -4 -9 -8 -9 -5 0 -9 7 -9 15 0 8 4 12 9 9 4 -3 8 -9
8 -15z m-730 -59 c0 -5 -5 -10 -11 -10 -5 0 -7 5 -4 10 3 6 8 10 11 10 2 0 4
-4 4 -10z m33 -5 c4 -8 3 -16 -1 -19 -4 -3 -9 4 -9 15 -2 23 3 25 10 4z m707
11 c0 -3 -4 -8 -10 -11 -5 -3 -10 -1 -10 4 0 6 5 11 10 11 6 0 10 -2 10 -4z
m-789 -33 c-12 -20 -14 -14 -5 12 4 9 9 14 11 11 3 -2 0 -13 -6 -23z m-26 7
c4 -6 -1 -7 -12 -3 -15 5 -16 3 -5 -8 6 -7 12 -20 11 -28 0 -11 -4 -8 -11 7
-6 12 -15 22 -20 22 -12 0 -10 -18 3 -25 6 -4 8 -13 5 -21 -3 -7 3 -18 12 -23
9 -6 13 -10 7 -11 -15 0 -36 16 -34 26 3 20 -2 35 -10 30 -5 -4 -8 -18 -6 -32
1 -14 -5 -33 -14 -42 -9 -10 -13 -13 -8 -8 12 17 8 29 -7 17 -10 -9 -15 -8
-19 3 -4 9 -1 13 6 10 7 -2 13 4 14 16 2 18 0 19 -22 4 -15 -10 -22 -21 -18
-31 4 -11 3 -14 -6 -9 -7 5 -10 14 -8 20 7 17 -8 39 -27 42 -9 1 -14 -2 -10
-7 3 -5 9 -7 13 -5 4 3 7 -5 8 -17 0 -12 -1 -16 -4 -9 -3 6 -9 12 -14 12 -6 0
-8 -4 -5 -8 4 -7 -19 -8 -43 -3 -2 1 2 8 9 16 15 18 -1 20 -18 3 -9 -9 -12 -9
-12 0 0 7 6 13 13 14 22 2 32 5 49 12 9 4 25 9 35 11 10 2 19 4 21 4 1 1 4 0
5 -1 2 -2 10 2 18 8 8 6 23 10 33 8 11 -1 27 1 35 6 21 12 28 12 36 0z m69
-19 c-9 -9 -34 -9 -34 -1 0 5 9 8 20 7 10 -1 17 -3 14 -6z m779 -31 c-3 -3
-10 3 -17 12 -10 14 -15 15 -26 5 -12 -10 -12 -9 -1 6 13 17 15 17 31 0 10
-10 15 -20 13 -23z m-1106 -32 c-3 -8 -6 -5 -6 6 -1 11 2 17 5 13 3 -3 4 -12
1 -19z m268 12 c3 -6 -1 -7 -9 -4 -18 7 -21 14 -7 14 6 0 13 -4 16 -10z m812
-22 c-3 -8 -6 -5 -6 6 -1 11 2 17 5 13 3 -3 4 -12 1 -19z m-1152 3 c3 -5 2
-12 -3 -15 -5 -3 -9 1 -9 9 0 17 3 19 12 6z m1179 -21 c-6 -6 -10 -3 -10 10 0
13 4 16 10 10 7 -7 7 -13 0 -20z m-884 -10 c-23 -15 -37 -11 -18 4 10 7 16 15
14 18 -1 3 2 1 8 -4 8 -6 6 -12 -4 -18z m56 12 c0 -10 -6 -19 -13 -19 -17 0
-8 28 12 37 1 0 1 -8 1 -18z m-165 -9 c13 -16 12 -17 -3 -4 -10 7 -18 15 -18
17 0 8 8 3 21 -13z m971 -17 c7 4 8 2 4 -5 -9 -14 -36 3 -36 23 0 6 5 3 11 -7
6 -9 15 -14 21 -11z m-929 1 c3 -8 0 -14 -7 -14 -7 0 -13 6 -13 14 0 7 4 13 8
13 4 0 9 -6 12 -13z m93 -22 c1 -9 -4 -11 -14 -8 -11 5 -13 3 -7 -8 5 -8 4
-11 0 -6 -16 14 -14 36 3 30 11 -5 13 -3 7 8 -5 8 -4 11 0 6 5 -4 10 -14 11
-22z m-49 9 c-3 -3 -12 -4 -19 -1 -8 3 -5 6 6 6 11 1 17 -2 13 -5z m867 -12
c3 -5 -1 -9 -9 -9 -8 0 -12 4 -9 9 3 4 7 8 9 8 2 0 6 -4 9 -8z m-804 -37 c-7
-8 -16 -12 -21 -10 -4 3 -12 -3 -18 -12 -6 -10 -11 -13 -11 -7 0 15 25 36 33
27 4 -3 9 2 13 11 4 9 9 15 12 12 3 -3 -1 -12 -8 -21z m-90 -5 c0 -5 -2 -10
-4 -10 -3 0 -8 5 -11 10 -3 6 -1 10 4 10 6 0 11 -4 11 -10z m910 6 c0 -2 -8
-10 -17 -17 -16 -13 -17 -12 -4 4 13 16 21 21 21 13z m110 -4 c0 -4 -10 -13
-22 -21 -23 -14 -23 -14 -4 8 20 22 26 25 26 13z m-1438 -19 c-6 -2 -10 -9 -7
-14 4 -5 -1 -6 -10 -2 -13 5 -14 7 -3 14 7 5 18 8 23 8 6 0 4 -3 -3 -6z m431
-18 c-3 -9 -8 -14 -10 -11 -3 3 -2 9 2 15 9 16 15 13 8 -4z m-483 -6 c-12 -9
-11 -10 6 -6 13 3 21 -1 21 -10 0 -8 -7 -11 -19 -7 -13 4 -16 1 -12 -9 3 -8 2
-17 -3 -20 -5 -3 -9 2 -9 11 -1 9 -4 24 -8 32 -5 11 0 16 16 17 18 2 20 0 8
-8z m581 -12 c-10 -9 -11 -8 -5 6 3 10 9 15 12 12 3 -3 0 -11 -7 -18z m104 -7
c3 -5 1 -10 -4 -10 -6 0 -11 5 -11 10 0 6 2 10 4 10 3 0 8 -4 11 -10z m596 -7
c13 -16 12 -17 -3 -4 -10 7 -18 15 -18 17 0 8 8 3 21 -13z m-794 -8 c0 -8 -4
-12 -9 -9 -5 3 -6 10 -3 15 9 13 12 11 12 -6z m79 -12 c-2 -9 -9 -19 -17 -21
-9 -2 -10 -1 -3 5 6 4 10 16 8 26 -1 9 1 15 6 12 5 -3 7 -13 6 -22z m811 1
c-3 -3 -12 -4 -19 -1 -8 3 -5 6 6 6 11 1 17 -2 13 -5z m-687 -18 c0 -2 -8 -10
-17 -17 -16 -13 -17 -12 -4 4 13 16 21 21 21 13z m-100 -10 c0 -2 -7 -7 -16
-10 -8 -3 -12 -2 -9 4 6 10 25 14 25 6z m854 -17 c-3 -5 -10 -7 -15 -3 -5 3
-7 10 -3 15 3 5 10 7 15 3 5 -3 7 -10 3 -15z m-838 -17 c1 -7 0 -8 -3 -2 -2 5
-9 10 -14 10 -6 0 -8 -4 -5 -8 2 -4 0 -14 -5 -22 -8 -13 -8 2 0 38 2 9 25 -6
27 -16z m724 11 c0 -5 -5 -15 -10 -23 -7 -12 -9 -10 -7 8 1 19 17 33 17 15z
m-1320 -27 c0 -8 -7 -17 -16 -20 -13 -5 -14 -4 -6 7 7 8 9 17 5 20 -3 4 -1 7
5 7 7 0 12 -6 12 -14z m514 -17 c-3 -5 0 -9 7 -9 7 0 10 -3 6 -6 -3 -3 -14 -1
-24 5 -12 7 -13 10 -4 11 11 0 11 3 0 18 -13 15 -12 16 3 3 10 -7 15 -17 12
-22z m891 11 c-3 -5 -12 -10 -18 -10 -7 0 -6 4 3 10 19 12 23 12 15 0z m-1365
-10 c0 -5 -8 -10 -17 -10 -15 0 -16 2 -3 10 19 12 20 12 20 0z m434 -30 c-6
-6 -10 -3 -10 10 0 13 4 16 10 10 7 -7 7 -13 0 -20z m794 -5 c-3 -3 -9 2 -12
12 -6 14 -5 15 5 6 7 -7 10 -15 7 -18z m137 15 c-3 -5 -10 -10 -16 -10 -5 0
-9 5 -9 10 0 6 7 10 16 10 8 0 12 -4 9 -10z m-730 -10 c3 -5 1 -10 -4 -10 -6
0 -11 5 -11 10 0 6 2 10 4 10 3 0 8 -4 11 -10z m502 -15 c0 -8 -4 -12 -9 -9
-5 3 -6 10 -3 15 9 13 12 11 12 -6z m-702 -15 c3 -5 1 -10 -4 -10 -6 0 -11 5
-11 10 0 6 2 10 4 10 3 0 8 -4 11 -10z m301 -2 c4 -6 3 -8 -4 -4 -6 3 -15 -2
-21 -11 -6 -10 -11 -13 -11 -7 0 9 19 34 26 34 2 0 6 -5 10 -12z m461 -2 c-15
-7 -24 -15 -21 -19 4 -4 5 -7 1 -7 -18 0 -15 22 5 29 34 14 47 11 15 -3z
m-122 -16 c3 -5 1 -10 -4 -10 -6 0 -11 5 -11 10 0 6 2 10 4 10 3 0 8 -4 11
-10z m-1058 -7 c-4 -3 0 -17 9 -31 8 -13 13 -26 10 -30 -3 -3 -6 1 -6 9 0 11
-2 11 -10 -1 -6 -10 -10 -11 -10 -2 0 6 -7 12 -15 12 -8 0 -15 5 -15 10 0 6 0
13 0 18 0 4 4 7 9 7 5 0 13 3 17 8 4 4 10 7 12 7 3 0 2 -3 -1 -7z m538 -5 c4
-3 2 -9 -3 -12 -5 -3 -15 1 -21 8 -10 11 -9 14 3 12 9 -1 18 -5 21 -8z m-505
-13 c0 -8 -2 -15 -4 -15 -2 0 -6 7 -10 15 -3 8 -1 15 4 15 6 0 10 -7 10 -15z
m695 5 c3 -6 -1 -7 -9 -4 -18 7 -21 14 -7 14 6 0 13 -4 16 -10z m351 -5 c-1
-8 -5 -17 -8 -21 -5 -4 -4 16 1 34 3 9 9 -1 7 -13z m-736 1 c0 -2 -8 -10 -17
-17 -16 -13 -17 -12 -4 4 13 16 21 21 21 13z m40 -38 c0 -5 -5 -8 -11 -8 -5 0
-8 4 -4 9 3 5 1 12 -5 16 -5 3 -10 11 -10 18 0 12 29 -23 30 -35z m377 27 c0
-8 -4 -12 -9 -9 -5 3 -6 10 -3 15 9 13 12 11 12 -6z m119 -10 c-1 -8 -5 -17
-8 -21 -5 -4 -4 16 1 34 3 9 9 -1 7 -13z m-814 -2 c-6 -2 -10 -8 -8 -12 3 -4
-1 -8 -9 -8 -8 0 -15 4 -15 8 0 8 19 17 35 17 6 0 4 -2 -3 -5z m55 -15 c0 -7
-12 -14 -26 -15 l-26 -1 25 14 c14 7 25 13 26 14 0 0 1 -6 1 -12z m243 -8 c11
-11 15 -20 9 -20 -5 0 -8 -4 -4 -9 3 -5 0 -13 -6 -17 -8 -5 -10 -1 -7 13 3 12
0 20 -7 20 -7 0 -10 -8 -7 -20 3 -13 1 -18 -6 -14 -9 6 -9 27 -2 47 1 3 2 8 1
13 -2 12 8 8 29 -13z m608 -5 c-3 -3 -9 2 -12 12 -6 14 -5 15 5 6 7 -7 10 -15
7 -18z m257 15 c-3 -5 -12 -10 -18 -10 -7 0 -6 4 3 10 19 12 23 12 15 0z
m-910 -10 c-3 -5 -12 -10 -18 -10 -7 0 -6 4 3 10 19 12 23 12 15 0z m438 -7
c-6 -16 -5 -16 11 -4 13 11 19 12 29 2 9 -10 8 -12 -7 -9 -10 1 -21 -2 -23 -8
-5 -14 39 -13 49 1 4 5 1 16 -5 25 -11 13 -10 13 6 1 13 -11 17 -11 17 -1 0 8
3 10 6 7 4 -4 1 -13 -6 -22 -7 -9 -10 -19 -6 -22 4 -4 12 -1 17 7 8 11 9 10 4
-7 -4 -14 -2 -23 4 -23 11 0 15 13 12 38 -1 6 2 12 6 13 4 0 16 2 25 4 12 2
15 -2 10 -13 -4 -10 -7 -12 -10 -4 -2 7 -8 10 -12 7 -5 -3 -7 -12 -4 -20 4 -8
10 -13 14 -10 5 3 11 1 15 -5 3 -5 11 -10 17 -10 6 0 6 6 -2 15 -7 9 -10 18
-6 22 3 3 6 1 6 -7 0 -8 4 -9 13 -3 15 12 47 13 47 1 0 -4 -4 -8 -10 -8 -5 0
-10 -4 -10 -10 0 -5 3 -9 8 -9 4 1 14 1 22 0 12 -1 11 -4 -2 -18 -14 -13 -20
-14 -32 -4 -11 9 -16 9 -22 0 -5 -9 -11 -7 -22 7 -14 18 -14 18 -8 -1 5 -16 1
-21 -13 -21 -11 0 -17 4 -15 8 7 11 -4 10 -27 -2 -13 -7 -25 -7 -38 -1 -15 8
-20 7 -25 -6 -6 -14 -9 -14 -26 5 -11 12 -19 27 -18 34 2 7 -5 12 -14 12 -11
-1 -15 3 -11 10 8 14 35 46 39 46 2 0 0 -8 -3 -17z m187 7 c0 -5 -2 -10 -4
-10 -3 0 -8 5 -11 10 -3 6 -1 10 4 10 6 0 11 -4 11 -10z m-712 -14 c-10 -7
-14 -17 -10 -21 4 -5 1 -5 -5 -1 -18 10 -16 24 5 29 27 7 28 7 10 -7z m952 5
c0 -5 -7 -12 -16 -15 -14 -5 -15 -4 -4 9 14 17 20 19 20 6z m-1087 -13 c9 0
17 -3 17 -8 0 -18 -16 -17 -45 2 -16 11 -21 17 -10 13 11 -4 28 -7 38 -7z"/>
<path d="M15621 10411 c-8 -5 -23 -8 -33 -6 -10 2 -18 -2 -18 -8 0 -7 -4 -6
-11 3 -9 13 -10 13 -6 0 2 -8 12 -13 23 -12 10 2 16 1 12 -3 -4 -4 -3 -17 3
-28 8 -14 8 -18 0 -13 -6 4 -11 3 -11 -3 0 -5 4 -12 10 -16 5 -3 6 -13 3 -21
-4 -11 0 -15 13 -12 13 2 19 -3 20 -19 1 -13 -3 -23 -9 -23 -6 0 -3 -8 5 -17
9 -10 13 -24 11 -30 -3 -7 -1 -13 4 -13 5 0 15 6 22 13 11 10 13 9 7 -1 -6
-10 -2 -10 18 -1 19 9 23 15 15 25 -6 7 -12 28 -14 46 -4 31 -3 32 10 14 11
-14 15 -16 15 -5 0 8 -13 23 -29 34 -16 10 -27 23 -25 27 3 4 -1 5 -9 2 -10
-4 -15 1 -14 13 2 14 -4 17 -23 15 -24 -2 -24 -2 -7 12 11 8 26 12 35 9 13 -4
14 -3 3 5 -11 8 -11 10 0 15 8 3 10 6 4 6 -5 0 -16 -3 -24 -8z m5 -59 c-4 -13
2 -21 22 -28 26 -10 28 -15 26 -58 -1 -26 2 -44 7 -41 5 4 9 1 9 -5 0 -7 -6
-10 -14 -7 -7 3 -19 0 -26 -6 -10 -9 -11 -9 -6 0 3 6 2 14 -4 18 -6 3 -8 18
-5 33 5 27 -11 56 -26 47 -8 -5 -2 41 7 57 9 15 15 8 10 -10z"/>
<path d="M15627 10309 c16 -17 21 -33 18 -51 -3 -15 -1 -29 5 -33 6 -4 7 1 3
11 -5 13 -3 15 7 9 10 -6 11 -4 4 6 -4 8 -8 25 -9 39 0 14 -4 25 -10 25 -5 0
-17 4 -25 9 -8 5 -5 -2 7 -15z"/>
<path d="M15680 10391 c0 -6 4 -13 10 -16 6 -3 7 1 4 9 -7 18 -14 21 -14 7z"/>
<path d="M15657 10383 c-4 -3 -7 -11 -7 -17 0 -6 5 -5 12 2 6 6 9 14 7 17 -3
3 -9 2 -12 -2z"/>
<path d="M15774 10378 c-4 -7 -4 -10 1 -6 4 4 15 2 24 -5 14 -11 14 -10 2 6
-16 20 -18 21 -27 5z"/>
<path d="M15710 10365 c0 -5 5 -17 10 -25 5 -8 10 -10 10 -5 0 6 -5 17 -10 25
-5 8 -10 11 -10 5z"/>
<path d="M15670 10350 c0 -6 7 -10 15 -10 8 0 15 2 15 4 0 2 -7 6 -15 10 -8 3
-15 1 -15 -4z"/>
<path d="M15695 10320 c3 -5 8 -10 11 -10 2 0 4 5 4 10 0 6 -5 10 -11 10 -5 0
-7 -4 -4 -10z"/>
<path d="M15750 10319 c0 -5 5 -7 10 -4 6 3 10 8 10 11 0 2 -4 4 -10 4 -5 0
-10 -5 -10 -11z"/>
<path d="M15731 10284 c0 -11 3 -14 6 -6 3 7 2 16 -1 19 -3 4 -6 -2 -5 -13z"/>
<path d="M15746 10262 c-3 -5 1 -9 9 -9 8 0 12 4 9 9 -3 4 -7 8 -9 8 -2 0 -6
-4 -9 -8z"/>
<path d="M15708 10253 c7 -3 16 -2 19 1 4 3 -2 6 -13 5 -11 0 -14 -3 -6 -6z"/>
<path d="M15720 10214 c0 -6 7 -19 16 -30 14 -18 14 -18 3 6 -14 31 -19 36
-19 24z"/>
<path d="M15700 10194 c0 -6 9 -20 19 -31 11 -12 17 -24 13 -29 -4 -4 -1 -4 6
0 11 6 8 14 -10 35 -13 14 -24 28 -25 30 -2 2 -3 0 -3 -5z"/>
<path d="M15756 10187 c3 -10 9 -15 12 -12 3 3 0 11 -7 18 -10 9 -11 8 -5 -6z"/>
<path d="M15634 10177 c-12 -7 -13 -12 -3 -23 8 -10 9 -18 0 -27 -6 -8 -8 -17
-4 -20 12 -12 21 -7 19 11 0 9 5 16 12 14 9 -2 12 4 8 16 -4 13 -1 19 9 19 9
0 14 -6 11 -14 -3 -8 -1 -11 4 -8 6 3 10 1 10 -4 0 -6 4 -11 10 -11 5 0 2 13
-8 29 -16 29 -38 35 -68 18z m19 -12 c-3 -9 -8 -14 -10 -11 -3 3 -2 9 2 15 9
16 15 13 8 -4z"/>
<path d="M15786 10142 c-3 -5 1 -9 9 -9 8 0 12 4 9 9 -3 4 -7 8 -9 8 -2 0 -6
-4 -9 -8z"/>
<path d="M15728 10113 c6 -2 9 -10 6 -15 -4 -7 -2 -8 5 -4 13 9 5 26 -12 25
-9 0 -8 -2 1 -6z"/>
<path d="M15750 10082 c0 -5 7 -9 15 -9 8 0 12 4 9 9 -3 4 -9 8 -15 8 -5 0 -9
-4 -9 -8z"/>
<path d="M15875 10080 c-3 -5 -1 -10 4 -10 6 0 11 5 11 10 0 6 -2 10 -4 10 -3
0 -8 -4 -11 -10z"/>
<path d="M14198 10042 c4 -10 7 -12 10 -4 2 7 9 9 15 5 7 -3 8 -2 4 2 -14 16
-36 14 -29 -3z"/>
<path d="M15600 10051 c0 -6 7 -14 15 -17 14 -6 13 -8 -1 -19 -17 -12 -12 -35
7 -35 6 0 7 5 4 10 -4 6 -2 17 4 24 8 10 6 18 -9 31 -12 11 -20 13 -20 6z"/>
<path d="M15730 10050 c-9 -6 -10 -10 -3 -10 6 0 15 5 18 10 8 12 4 12 -15 0z"/>
<path d="M15790 10019 c0 -5 5 -7 10 -4 6 3 10 8 10 11 0 2 -4 4 -10 4 -5 0
-10 -5 -10 -11z"/>
<path d="M15710 9980 c0 -5 5 -10 10 -10 6 0 10 5 10 10 0 6 -4 10 -10 10 -5
0 -10 -4 -10 -10z"/>
<path d="M15673 9926 c3 -7 -1 -23 -9 -35 -8 -11 -11 -21 -5 -21 9 0 21 26 20
44 0 5 5 13 13 17 10 7 8 9 -6 9 -11 0 -16 -5 -13 -14z"/>
<path d="M15705 9902 c6 -4 10 -17 9 -29 -1 -12 3 -20 8 -17 4 3 6 10 2 15 -3
5 -1 15 5 22 7 10 4 13 -12 14 -12 1 -17 -1 -12 -5z"/>
<path d="M14791 9831 c-16 -22 -18 -31 -9 -37 7 -4 10 -3 5 1 -4 5 3 19 15 32
12 12 19 25 16 29 -3 3 -15 -8 -27 -25z"/>
<path d="M14707 9804 c3 -8 12 -14 20 -14 8 0 12 4 9 9 -4 5 0 11 6 14 7 2 1
4 -14 4 -18 0 -25 -4 -21 -13z"/>
<path d="M14828 9813 c-3 -7 -3 -56 1 -89 0 -6 12 -16 26 -22 19 -9 30 -8 51
3 30 15 48 11 41 -9 -3 -7 -2 -19 3 -26 6 -10 11 -8 19 8 9 17 7 23 -14 36
-14 9 -25 13 -25 10 0 -4 -8 0 -18 9 -10 10 -21 14 -25 11 -3 -3 -11 -3 -17 1
-8 5 -8 11 1 21 15 19 4 18 -15 -1 -13 -14 -15 -13 -13 4 0 11 5 17 10 14 5
-3 4 4 -2 16 -12 22 -18 26 -23 14z m42 -74 c6 -2 22 -6 34 -8 11 -1 -13 -31
-25 -31 -5 0 -9 8 -10 18 0 11 -2 12 -6 4 -4 -10 -8 -10 -19 -1 -19 16 -18 28
4 24 9 -2 19 -4 22 -6z"/>
<path d="M15630 9811 c0 -7 -4 -9 -10 -6 -6 4 -7 -1 -3 -11 6 -15 7 -15 15 1
6 9 7 19 4 22 -3 4 -6 1 -6 -6z"/>
<path d="M15673 9805 c0 -8 4 -15 9 -15 4 0 8 4 8 9 0 6 -4 12 -8 15 -5 3 -9
-1 -9 -9z"/>
<path d="M15710 9800 c0 -5 5 -10 11 -10 5 0 7 5 4 10 -3 6 -8 10 -11 10 -2 0
-4 -4 -4 -10z"/>
<path d="M14076 9767 c3 -10 9 -15 12 -12 3 3 0 11 -7 18 -10 9 -11 8 -5 -6z"/>
<path d="M15653 9765 c0 -8 4 -12 9 -9 5 3 6 10 3 15 -9 13 -12 11 -12 -6z"/>
<path d="M14190 9740 c0 -5 5 -10 11 -10 5 0 7 5 4 10 -3 6 -8 10 -11 10 -2 0
-4 -4 -4 -10z"/>
<path d="M15535 9740 c3 -5 11 -10 16 -10 6 0 7 5 4 10 -3 6 -11 10 -16 10 -6
0 -7 -4 -4 -10z"/>
<path d="M15590 9740 c0 -5 5 -10 10 -10 6 0 10 5 10 10 0 6 -4 10 -10 10 -5
0 -10 -4 -10 -10z"/>
<path d="M15675 9740 c3 -5 8 -10 11 -10 2 0 4 5 4 10 0 6 -5 10 -11 10 -5 0
-7 -4 -4 -10z"/>
<path d="M14750 9711 c0 -7 -5 -9 -12 -5 -7 5 -8 3 -3 -5 5 -9 10 -10 18 -2 6
6 8 14 4 18 -4 3 -7 1 -7 -6z"/>
<path d="M15560 9716 c0 -2 7 -7 16 -10 8 -3 12 -2 9 4 -6 10 -25 14 -25 6z"/>
<path d="M15557 9685 c3 -8 9 -12 14 -9 12 7 11 11 -5 17 -10 4 -13 1 -9 -8z"/>
<path d="M14196 9682 c-3 -5 1 -9 9 -9 8 0 12 4 9 9 -3 4 -7 8 -9 8 -2 0 -6
-4 -9 -8z"/>
<path d="M14260 9680 c-12 -7 -10 -9 8 -7 12 0 22 5 22 9 0 11 -12 10 -30 -2z"/>
<path d="M14764 9682 c4 -3 14 -7 22 -8 9 -1 13 0 10 4 -4 3 -14 7 -22 8 -9 1
-13 0 -10 -4z"/>
<path d="M14840 9680 c0 -5 5 -10 10 -10 6 0 10 5 10 10 0 6 -4 10 -10 10 -5
0 -10 -4 -10 -10z"/>
<path d="M15306 9681 c-4 -6 -11 -9 -16 -6 -5 3 -12 1 -15 -5 -4 -6 -3 -10 2
-9 4 1 10 0 13 -1 3 -1 13 -3 23 -5 19 -4 21 3 8 24 -6 9 -11 10 -15 2z"/>
<path d="M15636 9682 c-3 -5 1 -9 9 -9 8 0 12 4 9 9 -3 4 -7 8 -9 8 -2 0 -6
-4 -9 -8z"/>
<path d="M14519 9680 c0 -3 -2 -15 -5 -27 -3 -17 0 -22 14 -20 9 1 23 6 30 10
16 11 15 30 -2 24 -7 -3 -19 0 -25 6 -6 6 -11 9 -12 7z m37 -22 c5 4 5 3 1 -2
-12 -15 -34 -15 -34 0 0 9 4 11 12 4 7 -5 16 -6 21 -2z"/>
<path d="M14700 9666 c0 -2 8 -10 18 -17 15 -13 16 -12 3 4 -13 16 -21 21 -21
13z"/>
<path d="M14873 9651 c0 -11 5 -18 9 -15 4 3 5 11 1 19 -7 21 -12 19 -10 -4z"/>
<path d="M14320 9656 c0 -2 7 -7 16 -10 8 -3 12 -2 9 4 -6 10 -25 14 -25 6z"/>
<path d="M14210 9641 c0 -6 4 -13 10 -16 6 -3 7 1 4 9 -7 18 -14 21 -14 7z"/>
<path d="M14977 9633 c-4 -3 -7 -11 -7 -17 0 -6 5 -5 12 2 6 6 9 14 7 17 -3 3
-9 2 -12 -2z"/>
<path d="M14775 9620 c3 -5 8 -10 11 -10 2 0 4 5 4 10 0 6 -5 10 -11 10 -5 0
-7 -4 -4 -10z"/>
<path d="M14824 9622 c4 -3 14 -7 22 -8 9 -1 13 0 10 4 -4 3 -14 7 -22 8 -9 1
-13 0 -10 -4z"/>
<path d="M15337 9600 c3 -11 7 -20 9 -20 2 0 4 9 4 20 0 11 -4 20 -9 20 -5 0
-7 -9 -4 -20z"/>
<path d="M15370 9611 c0 -6 4 -13 10 -16 6 -3 7 1 4 9 -7 18 -14 21 -14 7z"/>
<path d="M14546 9598 c3 -5 10 -6 15 -3 13 9 11 12 -6 12 -8 0 -12 -4 -9 -9z"/>
<path d="M14673 9593 c0 -9 4 -10 14 -2 7 6 13 12 13 14 0 1 -6 2 -13 2 -8 0
-14 -6 -14 -14z"/>
<path d="M14885 9599 c-3 -4 2 -6 10 -5 21 3 28 13 10 13 -9 0 -18 -4 -20 -8z"/>
<path d="M14979 9593 c-13 -15 -12 -15 9 -4 23 12 28 21 13 21 -5 0 -15 -7
-22 -17z"/>
<path d="M15405 9600 c-3 -6 1 -7 9 -4 18 7 21 14 7 14 -6 0 -13 -4 -16 -10z"/>
<path d="M15470 9606 c0 -2 7 -7 16 -10 8 -3 12 -2 9 4 -6 10 -25 14 -25 6z"/>
<path d="M14356 9582 c-3 -5 1 -9 9 -9 8 0 12 4 9 9 -3 4 -7 8 -9 8 -2 0 -6
-4 -9 -8z"/>
<path d="M15315 9580 c-3 -5 -1 -10 4 -10 6 0 11 5 11 10 0 6 -2 10 -4 10 -3
0 -8 -4 -11 -10z"/>
<path d="M15118 9568 c-7 -17 15 -19 29 -3 4 4 3 5 -4 2 -6 -4 -13 -2 -15 5
-3 8 -6 6 -10 -4z"/>
<path d="M14787 9559 c7 -7 15 -10 18 -7 3 3 -2 9 -12 12 -14 6 -15 5 -6 -5z"/>
<path d="M14905 9560 c-3 -6 1 -7 9 -4 18 7 21 14 7 14 -6 0 -13 -4 -16 -10z"/>
<path d="M14974 9554 c1 -8 4 -15 7 -16 2 -2 3 -1 2 1 -2 2 2 9 7 16 7 8 5 12
-4 12 -8 0 -13 -6 -12 -13z"/>
<path d="M15230 9551 c0 -5 7 -12 16 -15 14 -5 15 -4 4 9 -14 17 -20 19 -20 6z"/>
<path d="M15271 9553 c-1 -17 16 -25 25 -12 4 7 3 9 -4 5 -5 -3 -13 0 -15 6
-4 9 -6 10 -6 1z"/>
<path d="M15030 9546 c0 -2 7 -7 16 -10 8 -3 12 -2 9 4 -6 10 -25 14 -25 6z"/>
<path d="M15196 9542 c-3 -5 1 -9 9 -9 8 0 12 4 9 9 -3 4 -7 8 -9 8 -2 0 -6
-4 -9 -8z"/>
<path d="M14910 9520 c0 -5 5 -10 11 -10 5 0 7 5 4 10 -3 6 -8 10 -11 10 -2 0
-4 -4 -4 -10z"/>
<path d="M15137 9515 c-4 -8 -3 -16 1 -19 4 -3 9 4 9 15 2 23 -3 25 -10 4z"/>
<path d="M14654 10219 c-3 -5 -9 -7 -14 -4 -5 3 -11 1 -15 -5 -4 -6 -11 -8
-16 -4 -6 3 -5 -3 2 -15 10 -14 15 -17 21 -8 4 7 8 8 8 3 0 -5 6 -4 13 3 10 8
17 7 28 -2 7 -6 10 -8 6 -3 -4 5 -2 15 4 23 6 7 10 13 8 14 -31 6 -40 6 -45
-2z m30 -8 c-3 -3 -10 -7 -15 -7 -5 -1 -10 -2 -11 -4 -10 -7 -37 -6 -32 1 3 5
9 7 14 4 5 -3 11 -2 14 3 3 5 12 9 21 9 8 0 12 -3 9 -6z"/>
<path d="M14550 10175 c-11 -13 -10 -14 4 -9 9 3 16 10 16 15 0 13 -6 11 -20
-6z"/>
<path d="M14236 9748 c3 -5 10 -6 15 -3 13 9 11 12 -6 12 -8 0 -12 -4 -9 -9z"/>
<path d="M15015 9670 c10 -11 15 -20 10 -20 -4 0 -2 -7 5 -15 10 -12 16 -13
26 -4 8 6 14 8 14 4 0 -4 6 -2 14 4 10 8 16 9 21 1 3 -5 1 -10 -6 -10 -7 0 -9
-3 -6 -6 4 -4 17 1 31 9 17 12 26 13 28 5 3 -8 7 -6 10 4 7 17 -7 19 -30 4 -8
-5 -20 -2 -30 6 -9 8 -30 14 -45 13 -17 -1 -31 4 -34 11 -3 8 -10 14 -16 14
-5 0 -2 -9 8 -20z m69 -22 c-3 -5 -9 -6 -14 -3 -5 3 -11 1 -15 -5 -4 -6 -11
-8 -16 -4 -15 9 -2 20 25 20 13 0 22 -4 20 -8z"/>
<path d="M15209 9675 c-1 -3 -2 -8 -3 -12 -1 -5 -5 -15 -11 -23 -7 -13 -6 -13
7 -2 11 9 18 10 23 2 8 -13 25 -13 25 0 0 6 -6 9 -12 8 -7 -2 -12 5 -12 15 2
15 -14 26 -17 12z"/>
<path d="M3977 10794 c-1 -1 -63 -5 -137 -8 -128 -6 -230 -12 -240 -15 -10 -2
21 -25 37 -26 109 -12 159 -18 167 -22 4 -3 20 -7 35 -8 36 -4 110 -15 144
-21 16 -3 38 -7 50 -9 12 -2 36 -6 52 -9 17 -3 44 -8 60 -11 17 -3 41 -8 55
-11 27 -5 45 -9 130 -25 30 -6 64 -12 75 -15 11 -2 31 -6 45 -9 14 -3 45 -10
70 -15 25 -5 83 -19 130 -31 47 -11 103 -24 125 -29 62 -14 270 -77 291 -88
11 -5 22 -11 26 -11 15 -3 75 -26 153 -59 58 -25 470 -231 610 -306 287 -153
591 -307 601 -305 4 0 10 -3 13 -8 3 -4 31 -19 61 -33 30 -14 58 -29 61 -33 3
-5 9 -8 13 -8 3 1 37 -12 74 -30 56 -26 173 -76 307 -133 17 -7 55 -22 85 -34
30 -11 64 -24 75 -28 11 -4 22 -8 25 -9 3 -1 14 -5 25 -9 77 -30 95 -35 95
-28 0 4 4 2 8 -3 4 -6 27 -16 52 -23 51 -14 59 -17 80 -25 35 -13 178 -47 198
-47 12 0 22 -4 22 -8 0 -4 12 -9 27 -10 15 -1 59 -9 98 -17 38 -8 86 -17 105
-20 19 -3 46 -7 60 -10 14 -3 48 -7 75 -11 28 -3 59 -8 70 -10 11 -2 43 -7 70
-10 28 -2 66 -7 85 -10 42 -7 95 -12 175 -18 33 -3 80 -7 105 -10 76 -9 215
-18 457 -29 56 -3 106 -8 111 -11 11 -7 1054 0 1147 8 39 3 108 8 155 10 88 4
222 14 300 22 25 3 72 7 105 9 33 2 60 4 60 5 0 1 20 4 45 6 25 2 59 5 75 8
17 3 57 8 90 12 78 9 76 9 170 23 83 13 103 16 145 25 14 3 52 11 85 17 33 6
65 12 70 13 6 2 27 6 48 11 20 4 40 11 43 16 3 5 9 7 14 4 5 -3 40 4 77 15 38
12 77 23 88 26 24 4 187 60 300 102 102 37 332 136 460 198 55 26 102 48 105
49 17 3 226 111 232 120 4 5 8 7 8 3 0 -3 60 25 133 63 72 38 161 84 197 102
36 18 67 35 70 38 6 7 1 4 330 170 146 74 290 145 320 158 30 12 64 27 75 32
32 14 70 27 76 25 3 0 12 4 20 10 8 6 28 15 44 19 17 5 35 10 40 11 87 28 233
68 310 84 28 6 57 14 65 17 8 3 24 7 35 9 25 3 60 11 86 19 11 4 32 8 47 10
15 3 38 7 52 10 14 3 48 10 75 15 28 5 64 12 80 15 40 8 193 35 225 40 14 2
26 4 28 6 4 3 15 5 76 13 32 4 70 10 85 13 82 15 182 29 200 28 12 -1 21 2 21
7 0 5 4 7 9 3 5 -3 12 -1 15 4 8 13 -12 18 -66 16 -27 -1 -48 1 -48 4 0 11
-549 17 -615 7 -22 -3 -69 -8 -105 -11 -95 -8 -141 -13 -180 -20 -19 -3 -47
-7 -62 -7 -16 -1 -28 -4 -28 -7 0 -4 -12 -6 -27 -5 -16 0 -44 -3 -63 -7 -19
-4 -50 -10 -67 -13 -18 -4 -47 -8 -65 -11 -17 -3 -35 -8 -40 -11 -5 -3 -25 -8
-46 -10 -20 -3 -46 -8 -57 -11 -11 -4 -23 -8 -27 -9 -5 -1 -9 -2 -10 -4 -2 -1
-11 -3 -20 -5 -24 -4 -119 -35 -143 -45 -39 -18 -100 -43 -105 -44 -11 -3
-206 -97 -220 -106 -20 -13 -79 -39 -87 -39 -3 1 -9 -3 -12 -8 -3 -4 -28 -19
-56 -33 -27 -13 -67 -35 -87 -47 -21 -13 -38 -20 -38 -17 0 4 -7 1 -15 -6 -8
-6 -49 -30 -92 -53 -43 -22 -132 -69 -198 -104 -173 -91 -549 -276 -625 -308
-36 -15 -99 -43 -140 -62 -41 -19 -79 -36 -85 -38 -11 -2 -23 -7 -105 -41 -30
-12 -64 -24 -75 -26 -11 -1 -22 -6 -25 -9 -5 -7 -272 -95 -312 -103 -13 -3
-47 -12 -75 -20 -29 -8 -53 -12 -53 -9 0 3 -6 1 -13 -5 -7 -6 -22 -11 -32 -11
-11 0 -60 -9 -110 -20 -49 -10 -110 -22 -135 -26 -25 -3 -56 -8 -70 -10 -43
-8 -85 -15 -121 -19 -87 -11 -157 -19 -194 -21 -22 -1 -47 -5 -55 -8 -15 -6
-165 -17 -255 -20 -27 -1 -53 -6 -57 -12 -5 -6 -8 -5 -8 3 0 8 -5 10 -12 6 -6
-4 -48 -9 -92 -10 -45 -2 -124 -6 -176 -9 -91 -5 -557 -17 -630 -15 -19 0 -44
0 -55 0 -11 -1 -24 -1 -30 -1 -5 1 -91 3 -190 5 -257 7 -440 15 -645 30 -219
15 -285 21 -285 26 0 0 -26 3 -58 5 -32 2 -73 6 -90 9 -18 2 -54 8 -82 11 -27
4 -63 9 -80 12 -16 2 -45 6 -64 9 -57 7 -147 23 -221 39 -65 14 -76 16 -95 21
-11 2 -47 11 -80 19 -33 9 -69 18 -81 20 -28 6 -277 88 -334 110 -25 9 -61 23
-80 31 -54 21 -94 37 -100 39 -81 27 -579 262 -591 278 -3 5 -8 7 -10 6 -4 -3
-150 69 -244 121 -42 23 -187 99 -385 202 -25 12 -46 26 -48 31 -2 4 -8 7 -13
7 -5 0 -94 42 -197 93 -157 78 -229 111 -262 119 -3 1 -21 8 -40 16 -35 15
-106 37 -170 52 -72 18 -167 38 -201 44 -19 3 -45 8 -59 11 -13 2 -40 7 -60
10 -20 3 -45 7 -55 9 -11 2 -45 7 -75 10 -30 4 -73 10 -95 13 -22 2 -62 7 -90
8 -27 2 -50 5 -50 5 0 5 -392 19 -398 14z"/>
<path d="M3581 10764 c0 -11 3 -14 6 -6 3 7 2 16 -1 19 -3 4 -6 -2 -5 -13z"/>
<path d="M2821 10700 c-11 -6 -12 -44 -6 -201 8 -189 12 -264 15 -264 1 0 3
-13 5 -30 4 -42 29 -189 35 -205 1 -3 3 -9 4 -15 6 -30 20 -72 28 -82 5 -7 7
-17 3 -23 -3 -5 -1 -10 4 -10 6 0 10 -3 9 -7 -6 -29 108 -247 169 -324 34 -42
128 -144 142 -153 7 -4 21 -16 31 -26 43 -43 187 -128 295 -173 33 -14 89 -39
125 -55 36 -17 90 -40 120 -52 30 -12 69 -28 85 -35 17 -8 93 -38 170 -68 77
-30 149 -58 160 -62 11 -5 22 -9 25 -10 20 -7 48 -18 65 -26 12 -6 27 -11 35
-13 8 -2 29 -9 45 -15 17 -7 35 -14 40 -15 6 -2 17 -6 25 -9 81 -35 211 -77
236 -77 22 0 56 19 125 70 52 39 101 76 109 83 8 7 33 26 55 42 22 17 49 38
59 48 28 24 39 24 266 -18 19 -3 51 -8 70 -10 19 -2 35 -4 35 -5 0 -2 20 -6
60 -13 17 -3 73 -13 125 -22 52 -10 106 -19 120 -21 14 -2 50 -8 80 -13 75
-14 131 -24 155 -26 11 -1 27 -5 35 -8 8 -3 33 -8 55 -11 67 -10 109 -16 135
-22 14 -3 43 -8 65 -10 22 -3 47 -7 55 -10 8 -3 24 -7 35 -9 11 -2 54 -9 95
-16 41 -7 83 -14 93 -15 9 -1 19 -3 22 -4 10 -5 41 -3 77 4 36 8 51 25 51 59
-1 30 -3 35 -15 49 -7 7 -35 40 -63 73 -27 33 -66 78 -85 99 -19 22 -45 51
-58 65 -49 55 -268 285 -285 300 -10 9 -56 52 -101 96 -106 102 -223 208 -306
276 -36 30 -67 56 -70 59 -3 3 -32 25 -65 50 -33 25 -62 47 -65 51 -3 3 -41
30 -85 60 -44 30 -81 57 -83 62 -2 4 -8 7 -14 7 -5 0 -28 13 -51 29 -39 26
-286 150 -311 156 -6 1 -24 7 -41 14 -40 17 -196 71 -215 76 -8 2 -63 17 -121
34 -58 17 -114 31 -123 31 -9 0 -16 5 -16 12 0 6 -3 9 -6 6 -3 -3 -33 1 -67 9
-34 8 -69 16 -77 18 -8 2 -46 11 -85 20 -92 22 -92 22 -152 30 -29 4 -51 10
-49 14 3 4 -5 7 -17 7 -19 0 -136 18 -189 30 -10 2 -26 6 -35 8 -16 3 -82 15
-123 22 -8 1 -28 5 -45 8 -16 3 -48 8 -70 11 -22 3 -62 9 -90 15 -27 5 -66 12
-85 14 -33 6 -49 8 -130 22 -46 8 -69 12 -105 19 -51 9 -97 14 -180 20 -44 3
-96 8 -116 10 -19 2 -41 0 -48 -5z m286 -210 c35 -7 60 -17 57 -22 -8 -12 -9
-191 -2 -204 2 -5 6 -31 7 -58 2 -27 6 -59 10 -70 4 -12 7 -28 6 -36 -1 -8 3
-21 8 -27 5 -7 7 -13 4 -13 -17 0 115 -289 142 -310 3 -3 19 -23 35 -44 47
-63 127 -136 186 -169 30 -18 57 -33 60 -33 34 -10 50 -18 50 -25 0 -5 6 -9
14 -9 8 0 45 -14 82 -31 83 -37 84 -38 206 -89 53 -22 100 -40 103 -40 3 0 27
-9 53 -21 59 -26 64 -28 197 -79 61 -23 124 -48 142 -56 17 -8 34 -14 38 -14
3 0 27 -10 53 -21 25 -12 52 -22 59 -23 7 -1 15 -5 19 -8 11 -12 68 15 147 69
43 29 82 53 87 53 4 0 10 4 12 8 2 5 32 28 68 52 42 29 73 43 90 41 57 -6 75
-9 75 -11 0 -1 16 -3 35 -5 19 -2 35 -4 35 -5 0 -3 36 -10 85 -16 51 -7 74
-12 78 -14 3 -4 13 -5 77 -15 62 -9 73 -11 78 -15 1 -1 11 -3 22 -4 17 -2 63
-10 125 -21 8 -1 35 -6 60 -10 25 -4 54 -9 65 -11 11 -3 36 -7 55 -9 19 -3 46
-9 60 -12 14 -4 36 -7 50 -8 14 -2 32 -5 40 -8 8 -3 36 -8 61 -12 43 -5 83
-12 119 -20 8 -2 22 -4 31 -4 13 -1 96 -71 84 -71 -2 0 7 -12 21 -27 13 -14
23 -27 21 -29 -1 -2 -23 2 -47 7 -25 6 -54 12 -65 13 -11 2 -45 8 -75 14 -30
6 -68 14 -85 17 -65 11 -131 24 -160 30 -16 4 -40 8 -52 10 -12 2 -34 6 -50 9
-58 13 -79 17 -108 21 -16 2 -50 9 -75 14 -25 6 -58 12 -75 15 -16 2 -61 11
-100 19 -38 9 -86 18 -105 21 -36 6 -65 11 -110 21 -23 5 -69 13 -115 19 -11
2 -33 -3 -49 -11 -24 -13 -210 -144 -243 -173 -7 -5 -17 -10 -23 -10 -5 0 -10
-4 -10 -10 0 -5 -4 -10 -10 -10 -5 0 -19 -9 -30 -20 -10 -10 -27 -17 -37 -15
-16 3 -264 87 -303 102 -8 3 -19 7 -25 9 -5 1 -41 14 -80 29 -38 15 -77 29
-85 30 -8 2 -15 4 -15 5 0 1 -7 3 -15 5 -8 2 -49 17 -90 35 -41 17 -77 31 -80
32 -31 5 -315 124 -426 179 -116 57 -139 73 -228 157 -45 42 -156 179 -156
192 0 5 -6 15 -12 22 -36 37 -137 270 -153 351 -3 15 -8 39 -11 55 -10 47 -25
321 -18 333 4 8 29 5 111 -11z m361 -50 c2 -4 12 -6 22 -3 13 3 20 0 20 -8 0
-9 3 -10 11 -2 7 7 23 8 47 2 20 -5 55 -12 76 -14 49 -6 54 -11 31 -33 -17
-16 -18 -16 -12 1 6 15 4 16 -13 7 -11 -6 -20 -17 -20 -25 0 -7 -6 -16 -12
-19 -7 -3 -3 -3 10 0 21 5 22 4 10 -15 -7 -11 -15 -17 -18 -12 -7 11 -41 10
-34 -1 3 -5 9 -6 14 -3 4 3 11 -1 13 -7 4 -9 11 -6 24 10 13 16 24 21 38 16
15 -6 17 -4 12 10 -4 10 -3 15 3 11 5 -3 7 3 5 14 -2 11 4 26 13 33 9 7 13 8
9 2 -4 -7 5 -11 24 -12 17 0 34 -4 38 -7 3 -4 -5 -6 -19 -5 -39 3 -52 1 -45
-9 3 -5 1 -12 -5 -16 -5 -3 -10 -11 -10 -17 0 -6 8 -2 18 9 16 19 57 29 46 11
-3 -5 -9 -6 -14 -3 -16 10 -22 -16 -8 -33 12 -15 11 -16 -5 -3 -9 8 -20 11
-23 8 -9 -9 22 -37 31 -29 5 4 5 1 1 -6 -7 -11 -11 -10 -25 2 -10 9 -20 13
-23 10 -9 -9 24 -44 35 -37 6 3 7 1 3 -6 -6 -9 -11 -9 -21 -1 -15 12 -35 6
-35 -10 0 -5 8 -7 18 -4 14 5 15 4 2 -5 -14 -10 -7 -16 13 -12 5 1 6 -3 2 -9
-5 -8 -11 -8 -21 1 -11 9 -15 8 -20 -6 -4 -10 -1 -21 7 -26 12 -8 12 -11 -1
-19 -8 -5 -10 -10 -5 -10 6 0 1 -7 -9 -15 -25 -19 -53 -1 -35 22 9 10 9 12 -2
8 -10 -4 -15 2 -16 14 -2 18 1 19 18 8 10 -6 18 -18 16 -26 -1 -8 3 -16 10
-18 12 -4 11 28 -2 58 -3 10 -2 20 4 24 6 3 11 11 11 18 0 8 -3 8 -11 0 -15
-15 -62 13 -52 31 3 6 3 8 -2 4 -4 -4 -14 0 -22 10 -13 15 -13 15 -3 -5 5 -12
15 -25 20 -28 6 -3 10 -11 10 -17 0 -6 -9 -3 -20 7 -11 10 -20 13 -20 8 0 -6
7 -14 16 -17 8 -3 12 -11 8 -17 -4 -8 -9 -7 -15 2 -5 8 -9 10 -9 5 0 -6 10
-21 23 -34 16 -19 18 -24 5 -19 -18 6 -31 -14 -22 -37 3 -9 12 -12 22 -8 12 4
10 -3 -8 -25 -14 -17 -28 -29 -32 -26 -4 2 -5 -4 -1 -13 4 -11 8 -13 11 -6 2
7 8 10 13 6 5 -3 9 -2 8 3 -3 20 2 34 11 28 5 -3 7 -12 3 -20 -3 -8 1 -15 8
-15 13 0 3 -14 -12 -16 -5 -1 -13 -2 -19 -3 -18 -2 -11 -17 15 -31 13 -7 22
-17 19 -21 -2 -4 0 -10 5 -14 15 -8 8 -54 -9 -65 -8 -5 -10 -10 -5 -10 6 0 16
5 21 10 11 11 46 21 77 23 19 1 22 12 6 23 -6 3 -16 1 -22 -5 -16 -16 -30 -14
-23 4 3 8 2 14 -2 14 -4 -1 -14 -1 -22 0 -13 1 -13 3 -1 10 13 8 13 12 0 27
-8 10 -9 15 -3 11 6 -3 11 0 11 8 0 8 -4 12 -9 9 -14 -9 -4 20 11 32 11 9 11
11 -3 11 -9 0 -16 -4 -16 -9 0 -5 -5 -6 -11 -2 -8 5 -8 9 1 14 6 4 11 10 11
14 -3 18 0 23 14 23 8 0 15 -4 15 -9 0 -4 -7 -8 -16 -8 -8 0 -13 -4 -9 -10 3
-5 13 -6 22 -3 11 4 14 2 11 -8 -8 -22 10 -49 30 -43 14 5 14 4 2 -4 -9 -7
-18 -8 -26 -1 -7 6 -15 6 -17 1 -3 -4 3 -13 13 -20 12 -7 21 -8 25 -2 8 13 35
13 35 0 0 -5 -8 -6 -17 -3 -16 6 -17 5 -3 -13 14 -17 14 -18 -1 -6 -13 10 -19
10 -28 -2 -8 -10 -9 -16 -1 -21 5 -3 10 -1 10 6 0 8 7 6 19 -5 15 -13 20 -14
24 -4 4 10 6 10 6 1 1 -7 -8 -22 -19 -33 -11 -11 -17 -20 -14 -20 4 0 0 -7 -7
-16 -12 -15 -11 -16 9 -10 16 5 22 3 22 -8 0 -8 -4 -18 -10 -21 -6 -4 -7 1 -4
12 4 11 3 14 -3 6 -6 -8 -13 -8 -27 3 -15 10 -16 14 -5 15 11 0 11 2 1 6 -10
4 -9 9 5 20 17 13 16 13 -4 3 -13 -6 -23 -7 -23 -3 -1 4 -9 -2 -20 -15 -11
-13 -16 -30 -13 -39 5 -12 3 -14 -8 -8 -8 5 -11 5 -6 -1 5 -5 11 -8 13 -6 3 2
18 -5 34 -15 31 -18 34 -33 10 -41 -7 -3 -10 0 -6 6 4 6 -4 16 -16 22 -21 10
-21 10 -6 -3 10 -8 15 -17 12 -20 -10 -10 32 -26 46 -17 8 5 22 4 33 -1 15 -9
16 -13 5 -27 -8 -9 -8 -13 -1 -9 6 4 13 1 16 -5 4 -10 7 -10 18 0 12 11 11 16
-5 28 -11 8 -14 14 -7 14 7 0 9 5 5 11 -4 8 -9 7 -15 -2 -7 -11 -9 -11 -10 -1
-4 33 -6 37 -17 34 -7 -1 -12 2 -12 8 0 8 14 14 23 8 1 -1 12 4 25 11 17 9 22
9 20 0 -2 -6 3 -14 10 -16 8 -3 10 1 6 11 -3 9 -2 16 4 16 11 0 10 -25 -1 -36
-3 -4 -13 -1 -22 6 -9 7 -18 10 -21 7 -3 -3 6 -13 21 -23 25 -16 26 -16 41 2
14 18 14 18 4 -4 -8 -16 -17 -21 -30 -17 -13 4 -18 1 -16 -9 3 -19 16 -34 16
-18 0 7 5 12 12 12 6 0 22 10 35 22 17 16 22 18 18 6 -4 -9 -13 -19 -21 -22
-8 -3 -14 -10 -14 -16 0 -7 6 -8 18 -1 14 7 19 6 19 -4 0 -7 -6 -11 -12 -9 -6
3 -12 -2 -12 -11 0 -9 6 -13 16 -10 9 2 23 0 31 -5 13 -8 12 -10 -2 -10 -28 0
-21 -15 7 -16 13 -1 24 1 23 5 0 3 0 13 1 21 1 12 4 11 12 -4 9 -14 8 -20 -1
-26 -17 -10 -2 -16 39 -15 19 0 36 6 38 13 3 8 -1 10 -14 5 -10 -3 -15 -3 -11
1 3 4 12 8 20 10 7 1 18 5 24 8 6 4 11 1 11 -7 0 -8 -4 -12 -9 -9 -4 3 -8 0
-9 -5 -4 -40 -2 -55 10 -59 8 -3 11 0 7 6 -3 6 -1 14 5 18 8 4 7 9 -2 16 -11
8 -11 9 1 5 8 -2 21 3 28 12 8 9 10 10 6 2 -4 -8 -9 -27 -10 -44 -3 -24 -1
-27 10 -18 8 7 19 10 26 9 7 -2 14 2 17 9 3 8 -3 11 -16 8 -25 -5 -27 7 -6 25
13 11 14 10 9 -3 -4 -13 -1 -15 17 -12 13 3 31 -3 41 -12 10 -9 18 -11 18 -5
0 6 -4 14 -10 17 -5 3 -10 11 -10 17 0 6 10 -2 22 -18 35 -47 38 -49 33 -22
-5 25 13 51 31 47 21 -4 28 2 14 12 -13 9 -13 10 0 6 8 -2 14 -12 12 -22 -5
-25 17 -9 29 22 5 15 14 21 21 17 7 -5 9 0 6 14 -4 15 -2 19 8 15 10 -4 11
-10 3 -24 -5 -11 -14 -17 -20 -14 -5 4 -9 2 -9 -4 0 -21 19 -20 34 1 9 12 16
17 16 10 0 -6 5 -12 11 -12 6 0 9 6 6 13 -3 8 -1 20 3 28 6 9 3 20 -7 31 -9
10 -12 18 -7 18 17 0 33 -38 29 -67 l-5 -28 14 25 c8 14 12 28 10 31 -2 4 3
10 12 13 13 5 14 9 4 21 -9 10 -9 15 -1 15 6 0 11 -5 11 -10 0 -15 53 -6 58
10 3 8 0 10 -9 5 -8 -5 -11 -5 -7 0 4 4 3 14 -4 22 -8 11 -8 17 2 26 10 9 11
9 6 -1 -10 -18 12 -42 31 -35 12 5 14 1 8 -18 -7 -21 -6 -22 9 -10 13 11 19
11 31 1 9 -8 15 -9 15 -2 0 6 -4 14 -10 17 -16 10 -11 25 8 24 10 0 12 -3 5
-6 -13 -5 2 -35 39 -78 10 -11 18 -24 20 -30 1 -5 7 -15 12 -21 8 -9 14 -7 22
8 10 18 12 18 17 4 4 -10 3 -15 -3 -11 -6 3 -10 1 -10 -4 0 -15 27 -14 34 2 3
6 4 3 1 -9 -4 -14 0 -21 10 -21 8 0 15 4 15 9 0 4 5 8 11 8 8 0 8 -5 -1 -15
-7 -8 -16 -12 -21 -9 -5 3 -9 -1 -9 -9 0 -12 7 -13 34 -7 19 4 37 5 40 2 4 -3
6 1 6 9 0 11 2 11 10 -1 6 -10 10 -11 10 -2 0 6 5 12 11 12 8 0 8 -5 -1 -15
-19 -23 6 -19 30 5 11 11 20 16 20 11 0 -6 -5 -13 -10 -16 -8 -5 -7 -11 1 -21
8 -10 8 -14 0 -14 -6 0 -11 5 -11 10 0 21 -16 9 -17 -12 0 -13 1 -18 4 -11 2
7 11 9 19 6 7 -3 11 -9 8 -14 -3 -5 2 -6 11 -2 13 5 14 7 3 14 -10 7 -10 9 0
10 6 1 18 2 25 3 6 1 15 -5 19 -14 5 -12 7 -11 7 4 1 12 6 16 15 13 10 -4 13
-1 10 7 -6 15 -36 17 -45 3 -4 -5 -9 -5 -13 2 -4 6 -2 11 4 11 6 0 8 5 5 10
-3 6 -2 10 4 10 5 0 12 -4 16 -10 3 -5 12 -7 20 -4 9 4 18 -1 21 -11 5 -13 10
-10 26 15 18 31 38 36 46 12 2 -8 -3 -10 -15 -6 -15 5 -15 4 -3 -5 24 -17 36
6 15 29 -14 16 -20 17 -27 8 -4 -7 -8 -9 -8 -4 0 5 -6 3 -14 -4 -8 -6 -12 -19
-10 -28 5 -15 4 -15 -6 0 -6 9 -17 15 -24 12 -8 -3 -17 1 -22 8 -4 7 -3 10 1
5 5 -4 19 0 32 8 13 9 23 13 23 10 0 -3 8 -1 19 4 13 7 24 6 37 -4 11 -8 23
-15 28 -15 6 0 1 6 -10 14 -17 13 -17 15 -2 21 9 4 14 13 11 21 -3 8 -9 11
-14 8 -5 -3 -7 -9 -4 -14 3 -5 1 -11 -4 -14 -5 -4 -12 -2 -16 4 -4 6 -12 7
-18 4 -7 -4 -9 -4 -5 0 3 4 10 8 15 9 4 0 17 9 27 19 18 16 22 17 43 3 13 -9
23 -11 23 -5 0 5 -5 10 -11 10 -5 0 -7 5 -4 10 5 8 12 7 23 -2 10 -8 13 -8 9
-1 -4 6 -4 13 0 16 5 2 2 2 -4 1 -7 -2 -13 1 -13 6 0 6 5 10 11 10 5 0 7 5 3
11 -5 8 -9 8 -14 -1 -4 -7 -10 -8 -13 -3 -8 13 5 27 27 31 12 2 16 -1 10 -9
-4 -7 -3 -10 4 -5 12 7 8 44 -7 59 -6 6 -4 15 5 24 15 16 10 33 -9 33 -7 0
-13 9 -14 20 -1 11 2 18 8 15 5 -4 9 -1 9 5 0 7 -7 10 -15 7 -8 -4 -17 -2 -20
3 -4 6 -11 10 -18 10 -6 0 -3 -6 8 -13 11 -9 15 -19 10 -27 -6 -9 -4 -11 6 -5
11 7 11 5 -1 -10 -12 -15 -12 -17 -1 -10 9 5 12 4 8 -3 -5 -6 1 -8 15 -4 13 3
19 1 15 -6 -4 -5 -13 -9 -21 -8 -22 3 -46 27 -39 39 4 6 0 8 -9 5 -8 -4 -15 0
-15 7 0 10 5 11 19 4 11 -6 18 -6 18 0 0 5 -9 13 -21 16 -19 7 -20 7 -2 21 17
12 17 13 -5 9 -12 -2 -26 -6 -30 -9 -4 -2 -8 4 -8 14 0 12 4 16 11 11 5 -5 20
-7 32 -5 12 2 23 -3 27 -12 3 -9 12 -14 19 -12 6 3 26 -3 42 -13 17 -10 47
-26 68 -35 20 -9 37 -20 37 -25 0 -5 5 -9 11 -9 12 0 133 -80 137 -92 2 -4 10
-8 17 -8 7 0 15 -3 17 -7 2 -5 28 -27 58 -50 30 -23 69 -54 85 -68 17 -15 54
-47 84 -73 148 -128 340 -307 396 -372 l20 -23 -20 7 c-19 6 -56 12 -120 21
-28 4 -55 8 -115 20 -58 12 -79 16 -165 31 -49 8 -101 17 -115 20 -14 2 -41 7
-60 9 -19 3 -46 8 -60 12 -25 7 -37 9 -100 17 -19 2 -60 9 -90 15 -163 32
-182 35 -220 34 -26 -1 -78 -28 -210 -112 -96 -61 -179 -111 -185 -111 -5 0
-23 7 -39 15 -15 8 -36 15 -45 15 -9 0 -26 7 -37 15 -12 8 -24 11 -28 8 -3 -3
-6 -1 -6 5 0 7 -3 11 -7 10 -8 -3 -100 31 -168 62 -48 22 -75 32 -94 36 -8 1
-17 6 -20 11 -3 4 -13 9 -21 11 -15 3 -50 17 -82 33 -10 5 -25 9 -33 9 -10 0
-13 5 -9 12 4 7 3 8 -4 4 -6 -4 -29 3 -52 14 -22 11 -40 17 -40 13 0 -5 -4 -3
-8 2 -7 9 -24 17 -112 50 -25 10 -34 19 -32 32 2 13 0 14 -6 5 -6 -9 -16 -10
-40 -1 -18 6 -32 15 -32 20 0 5 -3 8 -7 7 -14 -4 -53 13 -53 23 0 5 -5 9 -12
9 -28 0 -161 115 -220 192 -26 32 -91 168 -105 216 -32 115 -36 139 -40 235
-3 63 -1 93 9 105 9 11 9 14 1 8 -9 -5 -11 -2 -6 10 11 28 77 51 135 46 29 -2
54 -7 56 -12z m338 -75 c1 -8 -2 -15 -6 -15 -5 0 -8 9 -7 20 1 21 10 18 13 -5z
m-127 8 c14 10 14 10 4 -4 -7 -9 -9 -19 -5 -24 4 -4 -3 -2 -15 4 -13 6 -23 17
-23 23 0 9 3 9 12 0 9 -9 15 -9 27 1z m96 -33 c-3 -5 -12 -10 -18 -10 -7 0 -6
4 3 10 19 12 23 12 15 0z m5 -54 c0 -2 -8 -10 -17 -17 -16 -13 -17 -12 -4 4
13 16 21 21 21 13z m647 -41 c0 -8 -4 -12 -9 -9 -5 3 -6 10 -3 15 9 13 12 11
12 -6z m-791 -20 c-3 -8 0 -16 7 -19 9 -3 9 -5 0 -5 -6 -1 -14 3 -18 9 -3 5
-13 6 -22 3 -13 -5 -12 -2 3 15 18 22 39 20 30 -3z m124 15 c-8 -5 -19 -10
-25 -10 -5 0 -3 5 5 10 8 5 20 10 25 10 6 0 3 -5 -5 -10z m755 0 c3 -5 1 -10
-4 -10 -6 0 -11 5 -11 10 0 6 2 10 4 10 3 0 8 -4 11 -10z m49 -22 c-3 -4 -1
-8 5 -8 5 0 13 5 16 10 5 8 11 7 21 -1 8 -6 14 -8 14 -3 0 4 5 3 11 -3 6 -6
18 -9 25 -6 8 3 14 0 14 -7 0 -7 7 -10 15 -6 9 3 18 -1 22 -9 4 -12 9 -13 18
-5 14 11 33 -5 21 -17 -3 -4 -6 -1 -6 6 0 7 -4 10 -9 6 -6 -3 -8 -14 -6 -25 2
-11 -1 -20 -7 -20 -5 0 -8 7 -4 15 3 8 -3 19 -14 25 -28 15 -37 12 -14 -5 10
-8 14 -15 7 -15 -6 0 -15 5 -18 10 -8 12 -37 9 -47 -5 -14 -19 -8 -26 13 -14
15 8 24 8 30 0 5 -6 6 -9 3 -7 -3 3 -16 1 -29 -4 -15 -6 -27 -4 -35 3 -10 10
-12 8 -7 -6 4 -10 3 -16 -2 -12 -5 3 -11 0 -13 -7 -3 -7 -7 -4 -12 7 -4 11 -4
17 -1 13 4 -3 15 2 26 13 20 20 26 34 9 24 -6 -3 -7 1 -4 10 4 9 3 15 -2 14
-17 -3 -29 2 -54 21 -24 18 -24 19 -3 17 12 0 19 -5 17 -9z m-36 -23 c-3 -3
-9 2 -12 12 -6 14 -5 15 5 6 7 -7 10 -15 7 -18z m-801 1 c0 -8 -6 -12 -15 -9
-11 5 -11 7 0 14 7 5 13 9 14 9 0 0 1 -6 1 -14z m849 -21 c19 -15 19 -15 0
-30 -11 -8 -25 -15 -30 -15 -6 0 -2 6 9 12 30 16 31 18 15 28 -22 14 -30 12
-24 -5 4 -8 2 -15 -4 -15 -8 0 -9 16 -3 38 2 6 19 0 37 -13z m-961 -22 c14
-18 9 -43 -7 -43 -6 0 -5 7 2 16 11 13 10 16 -8 21 -12 3 -22 9 -22 14 0 15
22 10 35 -8z m109 1 c6 -15 4 -15 -11 -3 -15 13 -16 12 -9 -6 5 -15 4 -17 -5
-8 -11 11 -5 33 11 33 4 0 11 -7 14 -16z m766 6 c0 -5 -2 -10 -4 -10 -3 0 -8
5 -11 10 -3 6 -1 10 4 10 6 0 11 -4 11 -10z m-26 -18 c3 -5 -1 -9 -9 -9 -8 0
-12 4 -9 9 3 4 7 8 9 8 2 0 6 -4 9 -8z m60 -8 c3 -8 2 -12 -4 -9 -6 3 -10 10
-10 16 0 14 7 11 14 -7z m-824 -26 c10 -21 10 -21 -3 -6 -8 10 -17 15 -20 11
-4 -3 -7 -1 -7 5 0 20 19 13 30 -10z m870 -8 c0 -5 -7 -7 -15 -4 -8 4 -15 8
-15 10 0 2 7 4 15 4 8 0 15 -4 15 -10z m39 -26 c-14 -13 -16 -13 -16 0 0 8 4
13 9 10 4 -3 8 0 8 7 0 7 3 9 7 5 4 -3 0 -13 -8 -22z m-922 -6 c-3 -8 -6 -5
-6 6 -1 11 2 17 5 13 3 -3 4 -12 1 -19z m40 3 c0 -11 -5 -18 -9 -15 -4 3 -5
11 -1 19 7 21 12 19 10 -4z m834 -3 c5 -10 4 -15 -5 -15 -8 0 -12 7 -8 15 3
10 1 13 -6 8 -6 -3 -13 -2 -16 3 -4 5 1 8 10 7 9 -1 20 -9 25 -18z m444 12 c3
-5 1 -10 -4 -10 -6 0 -11 5 -11 10 0 6 2 10 4 10 3 0 8 -4 11 -10z m-310 -20
c-3 -5 -12 -10 -18 -10 -7 0 -6 4 3 10 19 12 23 12 15 0z m-1067 -12 c-6 -26
-38 -32 -38 -7 0 6 4 8 9 4 5 -3 12 -1 16 5 9 14 16 13 13 -2z m899 -13 c0 -8
-4 -12 -9 -9 -5 3 -6 10 -3 15 9 13 12 11 12 -6z m68 5 c-3 -5 -12 -10 -18
-10 -7 0 -6 4 3 10 19 12 23 12 15 0z m-832 -35 c-7 -21 -12 -19 -10 4 0 11 5
18 9 15 4 -3 5 -11 1 -19z m803 -9 c1 -8 -4 -17 -12 -20 -11 -4 -12 -1 -5 13
7 11 7 22 1 29 -7 9 -7 9 2 2 6 -5 13 -16 14 -24z m64 30 c0 -3 -4 -8 -10 -11
-5 -3 -10 -1 -10 4 0 6 5 11 10 11 6 0 10 -2 10 -4z m-995 -15 c3 -5 2 -12 -3
-15 -5 -3 -9 1 -9 9 0 17 3 19 12 6z m15 -57 c0 -8 -5 -12 -10 -9 -6 4 -8 11
-5 16 9 14 15 11 15 -7z m135 -14 c-3 -5 -12 -10 -18 -10 -7 0 -6 4 3 10 19
12 23 12 15 0z m675 4 c0 -8 -19 -13 -24 -6 -3 5 1 9 9 9 8 0 15 -2 15 -3z
m650 -9 c6 4 9 3 8 -2 -1 -4 3 -18 10 -30 10 -17 9 -22 -4 -27 -11 -4 -15 -2
-11 8 7 17 -16 39 -28 28 -5 -4 -5 -1 -1 6 4 6 2 12 -3 12 -6 0 -11 5 -11 11
0 8 4 8 15 -1 8 -6 19 -9 25 -5z m-1360 -9 c0 -2 -7 -7 -16 -10 -8 -3 -12 -2
-9 4 6 10 25 14 25 6z m740 -5 c0 -6 -4 -12 -8 -15 -5 -3 -9 1 -9 9 0 8 4 15
9 15 4 0 8 -4 8 -9z m53 -24 c-3 -5 -14 -7 -24 -4 -12 3 -19 -2 -23 -17 -3
-17 -4 -16 -3 4 2 20 7 24 24 22 18 -3 22 1 17 15 -5 14 -4 15 4 3 6 -8 8 -18
5 -23z m-882 5 c-8 -3 -1 -11 17 -22 17 -11 29 -26 29 -37 -1 -10 3 -17 9 -16
6 1 11 -5 11 -13 0 -7 -2 -12 -5 -9 -3 2 -14 -1 -26 -7 -19 -10 -20 -10 -6 6
13 16 12 20 -5 32 -51 37 -56 44 -45 64 6 12 16 18 23 13 8 -5 8 -8 -2 -11z
m104 -12 c0 -7 -6 -15 -12 -17 -7 -3 -13 0 -13 7 0 6 5 8 10 5 6 -3 10 -2 10
4 0 5 -5 12 -10 14 -6 3 -5 4 2 3 7 -2 13 -9 13 -16z m790 -10 c-10 -11 -25
-20 -34 -19 -10 0 -8 4 7 9 12 5 25 17 28 25 4 9 9 13 12 10 3 -2 -3 -14 -13
-25z m547 13 c-6 -2 -9 -10 -6 -15 4 -7 2 -8 -4 -4 -13 8 -12 -20 2 -42 5 -8
4 -18 -3 -25 -8 -8 -11 -8 -11 1 0 10 -5 10 -22 2 -21 -10 -21 -9 2 9 16 14
18 19 8 15 -10 -3 -18 -1 -18 5 0 6 6 10 13 9 7 -2 11 5 9 16 -3 19 13 36 33
35 6 0 4 -3 -3 -6z m-496 -18 c-3 -23 -12 -26 -13 -5 -1 11 2 20 7 20 4 0 7
-7 6 -15z m-160 -14 c-4 -5 0 -11 6 -14 7 -2 9 -8 5 -13 -9 -10 -28 16 -21 28
3 4 7 8 10 8 3 0 3 -4 0 -9z m167 -46 c-3 -9 -8 -14 -10 -11 -3 3 -2 9 2 15 9
16 15 13 8 -4z m32 -24 c3 -5 0 -13 -6 -17 -7 -4 -9 -3 -5 4 3 5 0 13 -6 15
-9 4 -10 6 -1 6 6 1 14 -3 18 -8z m358 -6 c-3 -9 -8 -14 -10 -11 -3 3 -2 9 2
15 9 16 15 13 8 -4z m-1028 -5 c-3 -5 -12 -10 -18 -10 -7 0 -6 4 3 10 19 12
23 12 15 0z m-75 -15 c0 -8 -4 -15 -10 -15 -5 0 -7 7 -4 15 4 8 8 15 10 15 2
0 4 -7 4 -15z m-130 -5 c0 -5 -2 -10 -4 -10 -3 0 -8 5 -11 10 -3 6 -1 10 4 10
6 0 11 -4 11 -10z m894 -5 c-4 -8 -8 -15 -10 -15 -2 0 -4 7 -4 15 0 8 4 15 10
15 5 0 7 -7 4 -15z m-717 -10 c0 -8 -4 -12 -9 -9 -5 3 -6 10 -3 15 9 13 12 11
12 -6z m256 -18 c4 3 7 1 7 -6 0 -8 -6 -11 -16 -7 -12 5 -15 2 -10 -9 3 -9 2
-13 -3 -10 -6 3 -9 14 -8 25 1 13 5 16 13 10 6 -6 14 -7 17 -3z m-73 -1 c0 -3
-4 -8 -10 -11 -5 -3 -10 -1 -10 4 0 6 5 11 10 11 6 0 10 -2 10 -4z m650 -30
c0 -2 -7 -7 -16 -10 -8 -3 -12 -2 -9 4 6 10 25 14 25 6z m107 -26 c-1 -11 -5
-20 -9 -20 -10 0 -10 4 -2 24 8 22 13 20 11 -4z"/>
<path d="M3620 10400 c-8 -5 -10 -10 -5 -10 6 0 17 5 25 10 8 5 11 10 5 10 -5
0 -17 -5 -25 -10z"/>
<path d="M3570 10381 c0 -6 4 -13 10 -16 6 -3 7 1 4 9 -7 18 -14 21 -14 7z"/>
<path d="M3596 10377 c3 -10 9 -15 12 -12 3 3 0 11 -7 18 -10 9 -11 8 -5 -6z"/>
<path d="M3547 10359 c7 -7 15 -10 18 -7 3 3 -2 9 -12 12 -14 6 -15 5 -6 -5z"/>
<path d="M3655 10322 c-2 -2 -1 -11 2 -20 4 -8 2 -13 -3 -9 -6 3 -16 2 -24 -3
-11 -7 -11 -11 -1 -24 11 -12 17 -14 27 -5 8 6 14 8 14 3 0 -4 5 -3 12 4 8 8
8 15 -2 27 -11 13 -11 16 0 13 7 -2 14 2 16 7 4 10 -32 16 -41 7z m22 -47 c4
-4 3 -5 -4 -1 -6 3 -14 2 -18 -4 -4 -6 -11 -8 -16 -4 -5 3 -7 9 -4 14 6 10 31
7 42 -5z"/>
<path d="M3510 10316 c0 -2 8 -10 18 -17 15 -13 16 -12 3 4 -13 16 -21 21 -21
13z"/>
<path d="M3514 10254 c1 -8 4 -15 7 -16 2 -2 3 -1 2 1 -2 2 2 9 7 16 7 8 5 12
-4 12 -8 0 -13 -6 -12 -13z"/>
<path d="M3541 10234 c0 -11 3 -14 6 -6 3 7 2 16 -1 19 -3 4 -6 -2 -5 -13z"/>
<path d="M3561 10194 c0 -11 3 -14 6 -6 3 7 2 16 -1 19 -3 4 -6 -2 -5 -13z"/>
<path d="M3561 10124 c0 -11 3 -14 6 -6 3 7 2 16 -1 19 -3 4 -6 -2 -5 -13z"/>
<path d="M3496 10113 c-6 -14 -5 -15 5 -6 7 7 10 15 7 18 -3 3 -9 -2 -12 -12z"/>
<path d="M3495 10081 c-3 -5 -2 -12 3 -15 5 -3 9 1 9 9 0 17 -3 19 -12 6z"/>
<path d="M3534 10000 c0 -10 6 -16 13 -13 7 3 13 9 13 13 0 4 -6 10 -13 13 -7
3 -13 -3 -13 -13z"/>
<path d="M3586 9995 c24 -39 24 -40 24 -28 0 6 -9 21 -21 34 l-20 24 17 -30z"/>
<path d="M3654 9999 c0 -13 3 -15 13 -7 7 6 13 12 13 13 0 2 -6 5 -13 8 -7 3
-13 -3 -13 -14z"/>
<path d="M5154 9989 c-3 -6 -2 -15 3 -20 5 -5 9 -1 9 11 0 23 -2 24 -12 9z"/>
<path d="M3540 9961 c0 -5 7 -12 16 -15 14 -5 15 -4 4 9 -14 17 -20 19 -20 6z"/>
<path d="M3580 9946 c0 -2 7 -6 15 -10 8 -3 15 -1 15 4 0 6 -7 10 -15 10 -8 0
-15 -2 -15 -4z"/>
<path d="M3595 9890 c-4 -6 -11 -7 -17 -4 -7 4 -8 2 -4 -5 6 -9 11 -9 22 0 14
11 18 19 10 19 -3 0 -8 -5 -11 -10z"/>
<path d="M3510 9886 c0 -2 7 -7 16 -10 8 -3 12 -2 9 4 -6 10 -25 14 -25 6z"/>
<path d="M3593 9845 c0 -8 4 -12 9 -9 5 3 6 10 3 15 -9 13 -12 11 -12 -6z"/>
<path d="M3739 9837 c6 -8 9 -16 6 -19 -3 -2 2 -5 10 -5 13 0 13 3 -2 19 -19
21 -31 25 -14 5z"/>
<path d="M3599 9813 c-12 -16 -12 -17 2 -6 9 7 20 9 24 5 5 -4 5 -1 1 6 -9 16
-11 15 -27 -5z"/>
<path d="M4484 9806 c-5 -14 -9 -15 -15 -4 -6 9 -9 10 -9 1 0 -7 -6 -10 -14
-7 -15 6 -50 -48 -39 -60 6 -6 -13 -9 -20 -3 -2 1 -11 -4 -20 -12 -13 -10 -17
-11 -17 -1 0 10 -5 9 -17 -2 -10 -9 -23 -14 -29 -11 -6 2 -17 -3 -24 -11 -9
-12 -17 -13 -31 -5 -27 14 -40 3 -34 -32 6 -31 -5 -38 -25 -15 -6 8 -17 13
-24 10 -8 -3 -16 2 -19 10 -4 9 -11 16 -17 16 -6 0 -8 -4 -5 -10 3 -5 2 -10
-4 -10 -6 0 -17 -12 -26 -27 -13 -23 -15 -24 -10 -5 6 22 -8 31 -20 12 -5 -8
-11 -7 -21 1 -13 11 -18 6 -15 -14 1 -5 -4 -7 -11 -5 -7 3 -13 10 -13 16 0 5
-3 13 -7 17 -4 4 -4 14 -1 23 4 13 3 14 -5 3 -7 -9 -12 -10 -16 -2 -4 6 -18 9
-31 7 -14 -3 -27 0 -31 5 -3 5 -10 7 -15 4 -5 -4 -9 -1 -9 5 0 6 -8 10 -17 8
-11 -2 -18 3 -17 13 1 9 -6 16 -15 15 -9 0 -15 4 -14 11 4 18 -24 37 -32 22
-4 -6 -1 -15 6 -20 8 -5 12 -9 9 -10 -43 -7 -55 -10 -59 -16 -3 -3 4 -3 17 0
22 5 32 -8 11 -15 -6 -2 0 -15 14 -29 13 -15 23 -33 21 -42 -1 -10 3 -14 13
-10 12 5 12 7 1 14 -7 5 -8 9 -3 9 6 0 1 7 -9 15 -11 8 -16 18 -12 22 4 5 17
-3 28 -17 11 -14 19 -18 18 -10 -4 26 0 44 7 36 12 -11 12 -40 1 -53 -7 -9 -7
-13 1 -13 6 0 11 6 11 13 1 6 9 2 20 -11 13 -15 24 -21 32 -15 22 13 59 11 54
-4 -4 -10 -1 -11 14 -3 11 6 21 6 25 1 3 -5 -3 -12 -12 -14 -10 -3 -6 -4 8 -4
18 1 25 6 22 14 -3 7 -2 13 1 13 4 0 11 -12 17 -26 5 -15 12 -24 15 -21 3 3 1
14 -5 26 -7 11 -7 22 -2 25 5 4 14 -6 19 -21 7 -18 11 -22 11 -10 1 9 6 17 12
17 5 0 8 -4 4 -9 -3 -6 5 -15 17 -21 19 -9 21 -9 8 2 -16 13 -20 32 -9 42 4 4
12 -7 19 -24 7 -16 16 -30 21 -30 14 0 11 18 -3 23 -9 3 -10 8 -3 15 7 7 16 3
28 -14 10 -13 13 -24 7 -24 -5 0 -10 -5 -10 -10 0 -6 8 -5 20 2 13 8 15 15 8
19 -6 4 -13 17 -15 30 -3 19 -1 20 12 9 11 -9 19 -10 27 -2 6 6 17 8 24 5 12
-5 19 8 15 30 -1 9 13 9 22 1 12 -12 -24 -53 -41 -46 -14 5 -15 4 -2 -10 8 -9
17 -12 18 -7 2 5 9 6 14 3 7 -4 8 -2 4 4 -4 7 4 23 18 37 14 14 25 31 23 37
-1 6 3 12 10 15 7 3 10 -5 9 -22 -3 -21 -1 -23 12 -13 13 11 14 10 8 -9 -4
-12 -2 -24 3 -28 7 -4 8 1 4 11 -5 12 -3 15 6 9 10 -6 11 -3 2 14 -7 11 -16
21 -20 21 -5 0 -8 7 -7 15 4 25 14 28 21 6 3 -12 11 -21 16 -21 6 0 7 -4 4
-10 -3 -5 -1 -10 5 -10 6 0 8 12 5 28 -4 24 -1 28 20 30 14 1 25 -3 25 -8 0
-6 5 -10 11 -10 8 0 9 4 0 13 -6 8 -8 17 -4 20 9 10 25 9 19 -1 -2 -4 5 -9 17
-9 l22 -2 -23 17 c-18 14 -20 20 -10 30 9 9 9 12 -1 12 -7 0 -10 4 -6 10 3 5
12 7 20 4 11 -5 12 -11 4 -25 -9 -18 -7 -21 18 -18 4 0 11 -8 15 -18 7 -16 7
-16 6 2 -3 23 9 45 24 45 6 0 6 -6 -2 -15 -7 -9 -10 -18 -7 -22 4 -3 2 -14 -4
-24 -16 -31 0 -21 20 12 10 17 22 31 26 31 13 0 27 -31 19 -44 -4 -7 -3 -8 4
-4 11 6 16 -6 13 -26 0 -5 4 -8 10 -8 6 0 9 7 6 14 -4 10 -1 13 9 9 16 -6 18
-19 4 -28 -5 -3 -10 -12 -9 -18 0 -9 2 -9 5 -1 3 7 13 11 22 9 9 -1 12 0 5 2
-7 2 -9 11 -6 19 5 13 8 13 15 2 8 -10 9 -10 5 2 -2 8 -10 14 -16 13 -6 -2
-11 2 -11 8 0 5 -4 8 -8 5 -12 -7 -33 9 -36 26 -2 15 -56 85 -56 73 0 -4 -7
-2 -15 5 -11 9 -19 10 -28 1 -10 -8 -17 -7 -25 1 -8 8 -13 7 -18 -6z m57 -16
c15 0 35 -7 43 -16 18 -17 21 -28 7 -19 -6 3 -14 -3 -20 -12 -6 -10 -11 -13
-11 -6 0 6 5 15 11 19 8 4 8 9 0 17 -8 8 -18 4 -37 -14 -25 -23 -26 -23 -22
-3 1 11 -4 29 -12 40 -11 15 -11 16 0 7 8 -7 26 -13 41 -13z m-76 -25 c-3 -31
-15 -47 -30 -41 -8 3 -16 0 -19 -7 -3 -7 -3 1 -1 16 5 34 19 54 39 54 8 0 13
-9 11 -22z m-622 -71 c-3 -8 -9 -11 -15 -8 -5 3 -7 13 -3 22 5 13 2 12 -15 -3
-22 -20 -26 -14 -9 16 10 19 12 20 29 4 10 -9 16 -23 13 -31z m553 4 c0 -10
-1 -18 -3 -18 -1 0 -7 8 -12 18 -7 13 -6 19 2 19 7 0 13 -9 13 -19z m-496 -19
c0 9 4 10 13 3 6 -5 22 -8 33 -6 23 4 46 -17 50 -43 2 -10 -1 -11 -10 -4 -7 6
-16 8 -19 4 -4 -3 -13 -1 -21 6 -11 9 -15 8 -20 -5 -6 -15 -8 -15 -26 1 -11
10 -17 22 -14 26 3 5 1 9 -4 9 -5 0 -9 7 -9 16 0 14 2 14 14 -2 8 -11 13 -13
13 -5z m422 7 c-4 -6 -7 -14 -8 -18 -1 -5 -2 -11 -3 -14 0 -4 -8 -1 -16 6 -8
6 -20 8 -27 4 -9 -6 -9 -3 1 10 11 13 16 14 22 4 8 -11 13 -5 11 13 -1 3 5 6
13 6 8 0 11 -5 7 -11z m-80 -10 c7 4 8 2 4 -4 -3 -6 2 -15 11 -21 10 -6 15
-11 11 -11 -5 0 -10 1 -11 3 -2 1 -10 -3 -18 -10 -12 -9 -14 -5 -15 25 -1 21
1 31 3 24 3 -6 10 -9 15 -6z m-74 -34 c5 2 10 -1 10 -7 1 -5 -6 -9 -14 -7 -8
2 -14 -3 -14 -10 0 -8 -5 -5 -11 5 -8 14 -14 16 -25 6 -19 -16 -18 -4 2 16 12
11 20 13 29 5 7 -6 17 -9 23 -8z"/>
<path d="M4431 9762 c-13 -25 2 -38 19 -16 9 10 10 18 3 25 -8 8 -14 5 -22 -9z
m10 -15 c-10 -9 -11 -8 -5 6 3 10 9 15 12 12 3 -3 0 -11 -7 -18z"/>
<path d="M3899 9660 c-7 -5 -5 -9 5 -13 8 -3 18 -2 22 4 3 6 10 6 17 1 18 -14
51 -12 37 2 -12 12 -64 16 -81 6z"/>
<path d="M3633 9785 c0 -8 4 -15 9 -15 4 0 8 4 8 9 0 6 -4 12 -8 15 -5 3 -9
-1 -9 -9z"/>
<path d="M3596 9782 c-3 -5 1 -9 9 -9 8 0 12 4 9 9 -3 4 -7 8 -9 8 -2 0 -6 -4
-9 -8z"/>
<path d="M5060 9786 c0 -2 8 -10 18 -17 15 -13 16 -12 3 4 -13 16 -21 21 -21
13z"/>
<path d="M3705 9772 c-16 -12 -16 -32 0 -26 8 4 13 10 10 14 -3 5 1 11 7 13 7
3 9 6 3 6 -5 0 -14 -3 -20 -7z"/>
<path d="M3615 9740 c3 -5 8 -10 11 -10 2 0 4 5 4 10 0 6 -5 10 -11 10 -5 0
-7 -4 -4 -10z"/>
<path d="M5070 9740 c-12 -7 -10 -9 7 -7 12 0 19 5 17 9 -6 10 -6 10 -24 -2z"/>
<path d="M3676 9727 c3 -10 9 -15 12 -12 3 3 0 11 -7 18 -10 9 -11 8 -5 -6z"/>
<path d="M3718 9733 c7 -3 16 -2 19 1 4 3 -2 6 -13 5 -11 0 -14 -3 -6 -6z"/>
<path d="M4582 9710 c-7 -11 -9 -20 -4 -20 4 0 13 9 20 20 7 11 9 20 4 20 -4
0 -13 -9 -20 -20z"/>
<path d="M3715 9709 c-4 -6 -5 -12 -2 -15 2 -3 7 2 10 11 7 17 1 20 -8 4z"/>
<path d="M3735 9700 c-3 -6 1 -7 9 -4 18 7 21 14 7 14 -6 0 -13 -4 -16 -10z"/>
<path d="M5086 9698 c3 -5 10 -6 15 -3 13 9 11 12 -6 12 -8 0 -12 -4 -9 -9z"/>
<path d="M4501 9697 c2 -1 13 -9 24 -17 19 -14 19 -14 6 3 -7 9 -18 17 -24 17
-6 0 -8 -1 -6 -3z"/>
<path d="M4420 9679 c0 -5 5 -7 10 -4 6 3 10 8 10 11 0 2 -4 4 -10 4 -5 0 -10
-5 -10 -11z"/>
<path d="M4470 9680 c-13 -8 -12 -10 3 -10 9 0 17 5 17 10 0 12 -1 12 -20 0z"/>
<path d="M3766 9662 c-3 -5 1 -9 9 -9 8 0 12 4 9 9 -3 4 -7 8 -9 8 -2 0 -6 -4
-9 -8z"/>
<path d="M4763 9663 c-7 -2 -13 -10 -13 -15 0 -6 3 -8 7 -5 9 9 34 -13 27 -24
-3 -5 2 -6 10 -3 21 8 27 31 10 44 -10 9 -14 9 -14 1 0 -6 -5 -11 -11 -11 -5
0 -7 5 -4 10 7 11 6 11 -12 3z m47 -17 c0 -3 -4 -8 -10 -11 -5 -3 -10 -1 -10
4 0 6 5 11 10 11 6 0 10 -2 10 -4z"/>
<path d="M4993 9655 c-3 -9 -3 -19 1 -22 3 -4 6 1 6 10 0 8 6 18 13 20 9 4 9
6 -1 6 -7 1 -15 -6 -19 -14z"/>
<path d="M4421 9653 c-1 -6 4 -15 9 -18 6 -4 7 -12 4 -18 -4 -7 -3 -8 1 -4 12
10 16 39 5 32 -5 -3 -11 1 -13 7 -4 9 -6 10 -6 1z"/>
<path d="M4495 9649 c-4 -6 -5 -12 -2 -15 2 -3 7 2 10 11 7 17 1 20 -8 4z"/>
<path d="M4533 9645 c0 -8 4 -12 9 -9 5 3 6 10 3 15 -9 13 -12 11 -12 -6z"/>
<path d="M4701 9640 c-9 -5 -4 -7 13 -7 29 0 32 2 13 10 -8 3 -20 2 -26 -3z"/>
<path d="M4317 9633 c-4 -6 0 -13 8 -17 8 -3 17 0 21 6 4 6 3 8 -4 4 -5 -3
-12 -1 -14 6 -3 8 -6 9 -11 1z"/>
<path d="M3735 9620 c-3 -5 -1 -10 4 -10 6 0 11 5 11 10 0 6 -2 10 -4 10 -3 0
-8 -4 -11 -10z"/>
<path d="M4610 9619 c0 -5 5 -7 10 -4 6 3 10 8 10 11 0 2 -4 4 -10 4 -5 0 -10
-5 -10 -11z"/>
<path d="M4753 9615 c0 -8 4 -12 9 -9 4 3 8 9 8 15 0 5 -4 9 -8 9 -5 0 -9 -7
-9 -15z"/>
<path d="M4945 9620 c-3 -6 1 -7 9 -4 18 7 21 14 7 14 -6 0 -13 -4 -16 -10z"/>
<path d="M3868 9613 c7 -3 16 -2 19 1 4 3 -2 6 -13 5 -11 0 -14 -3 -6 -6z"/>
<path d="M3830 9606 c0 -2 7 -7 16 -10 8 -3 12 -2 9 4 -6 10 -25 14 -25 6z"/>
<path d="M3930 9600 c0 -5 5 -10 10 -10 6 0 10 5 10 10 0 6 -4 10 -10 10 -5 0
-10 -4 -10 -10z"/>
<path d="M4300 9606 c0 -2 7 -7 16 -10 8 -3 12 -2 9 4 -6 10 -25 14 -25 6z"/>
<path d="M4400 9600 c-9 -6 -10 -10 -3 -10 6 0 15 5 18 10 8 12 4 12 -15 0z"/>
<path d="M4798 9599 c-6 -4 4 -6 21 -5 17 0 31 4 31 8 0 8 -37 6 -52 -3z"/>
<path d="M3959 9588 c-7 -23 -4 -35 7 -35 11 0 11 3 1 16 -10 12 -9 14 6 8 11
-4 16 -3 12 3 -5 9 -24 14 -26 8z"/>
<path d="M4235 9580 c-3 -5 -1 -10 4 -10 6 0 11 5 11 10 0 6 -2 10 -4 10 -3 0
-8 -4 -11 -10z"/>
<path d="M4296 9581 c-3 -5 2 -15 12 -22 15 -12 16 -12 5 2 -7 9 -10 19 -6 22
3 4 4 7 0 7 -3 0 -8 -4 -11 -9z"/>
<path d="M4750 9579 c0 -5 5 -7 10 -4 6 3 10 8 10 11 0 2 -4 4 -10 4 -5 0 -10
-5 -10 -11z"/>
<path d="M4006 9567 c-17 -12 -17 -14 1 -27 14 -11 16 -11 6 0 -10 11 -9 16 5
26 22 17 11 18 -12 1z"/>
<path d="M3855 9560 c3 -5 8 -10 11 -10 2 0 4 5 4 10 0 6 -5 10 -11 10 -5 0
-7 -4 -4 -10z"/>
<path d="M4037 9563 c-11 -11 -8 -21 9 -27 13 -5 14 -4 6 7 -7 8 -9 17 -5 20
3 4 4 7 1 7 -2 0 -8 -3 -11 -7z"/>
<path d="M4080 9560 c-8 -5 -10 -10 -5 -10 6 0 17 5 25 10 8 5 11 10 5 10 -5
0 -17 -5 -25 -10z"/>
<path d="M4370 9559 c0 -5 5 -7 10 -4 6 3 10 8 10 11 0 2 -4 4 -10 4 -5 0 -10
-5 -10 -11z"/>
<path d="M4436 9553 c-6 -14 -5 -15 5 -6 7 7 10 15 7 18 -3 3 -9 -2 -12 -12z"/>
<path d="M4120 9556 c0 -2 7 -7 16 -10 8 -3 12 -2 9 4 -6 10 -25 14 -25 6z"/>
<path d="M4275 9551 c-3 -5 -2 -12 3 -15 5 -3 9 1 9 9 0 17 -3 19 -12 6z"/>
<path d="M4114 9533 c16 -20 36 -23 36 -6 0 4 -3 3 -7 0 -3 -4 -16 1 -27 10
-21 18 -21 18 -2 -4z"/>
<path d="M4200 9535 c-7 -9 -11 -17 -9 -20 3 -2 10 5 17 15 14 24 10 26 -8 5z"/>
<path d="M3976 9527 c3 -10 9 -15 12 -12 3 3 0 11 -7 18 -10 9 -11 8 -5 -6z"/>
<path d="M4256 9502 c-2 -4 -1 -14 4 -22 7 -11 9 -9 7 8 -1 24 -3 26 -11 14z"/>
<path d="M4585 10210 c-6 -10 -5 -11 15 -14 6 0 14 -5 18 -11 10 -14 32 -17
32 -4 0 5 6 7 13 3 7 -4 9 -3 4 2 -5 5 -13 10 -18 10 -5 1 -11 3 -14 4 -3 1
-8 3 -12 4 -5 1 -13 5 -20 9 -6 4 -14 3 -18 -3z"/>
<path d="M3640 9886 c0 -2 11 -11 25 -20 14 -9 25 -13 25 -8 0 5 -11 14 -25
20 -14 6 -25 10 -25 8z"/>
<path d="M7885 8594 c-5 -1 -206 -5 -445 -8 -396 -5 -516 -9 -530 -16 -3 -2
-9 -4 -15 -5 -10 -2 -17 -4 -60 -21 -11 -4 -23 -6 -27 -6 -5 1 -8 -3 -8 -8 0
-6 -5 -10 -11 -10 -14 0 -144 -76 -194 -114 -66 -50 -230 -189 -233 -198 -2
-4 -8 -8 -13 -8 -8 0 -34 -19 -63 -46 -60 -56 -135 -117 -206 -169 -30 -21
-57 -42 -60 -45 -3 -3 -23 -19 -45 -36 -49 -36 -73 -55 -90 -71 -8 -7 -18 -13
-23 -13 -6 0 -13 -7 -16 -16 -4 -9 -9 -14 -12 -11 -3 3 -14 -2 -24 -11 -38
-34 -100 -76 -100 -67 0 3 -9 -2 -19 -12 -11 -10 -46 -31 -78 -48 -32 -16 -64
-35 -71 -42 -7 -7 -18 -13 -24 -13 -5 0 -24 -6 -41 -14 -62 -28 -175 -65 -181
-59 -3 4 -6 1 -6 -6 0 -7 -5 -9 -10 -6 -6 4 -17 1 -25 -5 -8 -6 -19 -9 -26 -5
-6 4 -14 3 -18 -3 -5 -8 -55 -19 -126 -26 -11 -2 -45 -8 -75 -14 -30 -7 -76
-13 -102 -14 -27 -2 -48 -6 -48 -9 0 -4 -16 -5 -35 -3 -19 1 -35 -1 -35 -5 0
-8 278 -6 390 3 146 12 178 16 255 31 44 9 89 17 100 19 11 2 27 6 35 9 8 3
29 9 45 13 35 9 34 8 60 19 73 29 145 62 177 82 21 13 40 23 44 23 3 0 58 35
122 78 136 91 288 208 492 378 80 66 173 139 207 161 70 47 176 101 213 109
46 10 210 14 683 19 257 2 471 7 475 9 5 3 14 1 21 -4 8 -4 26 -4 41 0 18 5
32 4 39 -3 8 -8 11 -8 11 1 0 9 5 10 19 3 10 -6 20 -8 23 -6 3 3 22 5 44 5 59
0 72 0 155 1 42 1 81 -1 88 -5 6 -4 11 -4 11 1 0 8 133 8 155 -1 7 -2 16 -2
19 1 9 9 616 9 616 0 0 -5 6 -5 13 0 17 11 67 12 67 1 0 -5 6 -6 12 -2 17 11
388 11 388 1 0 -5 6 -5 13 0 18 11 67 12 67 0 0 -6 5 -6 13 0 14 10 438 10
455 -1 7 -4 12 -3 12 1 0 5 23 8 50 8 28 0 50 -3 50 -8 0 -4 5 -5 11 -1 14 8
129 11 129 3 0 -3 10 -5 23 -3 12 1 22 3 22 4 0 2 118 2 130 0 6 -1 14 -2 18
-1 8 1 64 2 227 2 52 0 100 0 105 0 91 0 902 -12 960 -14 124 -5 158 -17 305
-103 49 -29 140 -97 179 -135 9 -8 49 -42 89 -73 39 -32 72 -59 72 -60 0 -1
-53 -2 -117 -3 -65 0 -298 -4 -518 -8 -530 -10 -777 -14 -1218 -19 -202 -3
-371 -7 -376 -11 -5 -3 -12 -1 -15 3 -4 7 -51 9 -51 2 0 -7 -72 -5 -82 2 -6 5
-14 5 -17 -1 -4 -6 -101 -10 -249 -11 -133 -1 -316 -4 -407 -6 -91 -2 -318 -6
-505 -9 -187 -3 -491 -7 -675 -10 -184 -4 -359 -6 -387 -6 -29 1 -59 1 -65 1
-7 0 -56 -2 -108 -4 -52 -2 -265 -6 -472 -7 -207 -2 -375 -6 -372 -10 2 -3 43
-7 91 -8 56 -1 90 -6 95 -14 6 -9 8 -9 8 1 0 16 51 13 62 -3 5 -7 8 -7 8 0 0
12 69 13 88 2 7 -5 12 -4 12 3 0 6 5 8 11 4 6 -3 97 -8 202 -10 106 -2 264 -6
352 -8 277 -8 737 -19 817 -20 43 -1 78 -3 78 -6 0 -3 87 -6 193 -7 190 -1
445 -7 812 -19 255 -8 515 -15 540 -14 11 1 25 1 30 1 53 -4 404 -13 916 -26
59 -1 110 -4 115 -6 5 -2 102 -4 216 -4 115 0 208 -2 208 -5 0 -3 62 -6 138
-6 75 -1 236 -4 357 -8 121 -3 300 -8 398 -9 l178 -3 19 -31 c10 -17 23 -34
29 -37 14 -9 72 -94 75 -109 1 -7 5 -17 9 -23 3 -6 10 -44 13 -83 6 -57 4 -71
-7 -72 -47 -3 -534 -10 -814 -12 -182 -2 -335 -6 -342 -10 -6 -4 -14 -4 -17 1
-2 4 -26 6 -53 4 -26 -1 -57 -2 -68 -2 -30 2 -38 1 -67 -3 -16 -2 -28 0 -28 5
0 5 -6 6 -12 1 -7 -4 -110 -8 -228 -9 -194 -2 -503 -6 -1400 -20 -162 -2 -438
-6 -613 -8 -175 -2 -321 -6 -324 -10 -3 -3 -14 -1 -24 5 -13 6 -25 6 -37 0
-13 -7 -23 -6 -30 1 -7 7 -12 8 -12 3 0 -6 -20 -10 -45 -10 -25 0 -45 4 -45 9
0 4 -6 4 -12 -1 -8 -6 -132 -11 -293 -13 -154 -1 -354 -4 -445 -6 -309 -6
-875 -16 -1052 -17 -97 -1 -174 -5 -172 -8 2 -3 -14 -3 -36 1 -22 4 -42 5 -45
2 -10 -11 -184 -8 -178 2 4 6 0 5 -8 -1 -10 -8 -60 -13 -145 -14 -124 -2 -179
-12 -168 -30 3 -5 14 -5 24 1 12 6 21 7 25 0 3 -6 15 -6 29 0 13 5 26 6 29 3
4 -3 118 -7 254 -9 136 -2 336 -6 443 -8 107 -2 362 -8 565 -11 491 -10 499
-10 513 -19 6 -4 12 -3 12 3 0 9 37 7 68 -4 7 -3 10 0 7 5 -4 7 3 7 19 0 18
-6 26 -6 26 1 0 6 5 7 12 3 7 -4 102 -9 213 -10 110 -1 360 -5 555 -9 195 -4
393 -8 440 -9 47 0 88 -5 92 -11 5 -6 8 -6 8 2 0 7 11 10 29 7 17 -3 132 -6
258 -7 138 -1 231 -6 235 -12 5 -7 8 -6 8 1 0 6 14 9 33 7 17 -2 129 -5 247
-7 254 -5 695 -14 1010 -22 124 -3 330 -7 458 -8 127 -2 235 -5 238 -8 3 -4
19 -2 35 2 16 5 29 6 29 2 0 -4 57 -8 128 -8 513 -6 553 -7 548 -19 -7 -19
-126 -187 -155 -219 -52 -57 -86 -62 -521 -80 -58 -3 -150 -7 -205 -10 -141
-7 -400 -17 -530 -21 -60 -2 -110 -4 -110 -5 0 -1 -54 -3 -120 -5 -66 -2 -181
-6 -255 -9 -245 -11 -453 -18 -580 -20 -69 -1 -131 -5 -137 -9 -6 -4 -14 -3
-18 3 -4 6 -12 7 -18 3 -7 -4 -39 -8 -72 -9 -79 -2 -468 -15 -620 -20 -66 -2
-197 -6 -292 -8 -95 -2 -177 -7 -182 -11 -6 -3 -11 -1 -11 5 0 6 -5 8 -12 4
-6 -4 -36 -8 -67 -10 -91 -4 -454 -15 -614 -18 -81 -2 -150 -6 -154 -9 -3 -4
-12 -2 -20 4 -7 6 -13 8 -13 3 0 -5 -60 -10 -133 -11 -127 -2 -248 -6 -632
-19 -99 -3 -241 -8 -315 -9 -74 -2 -198 -6 -275 -9 -226 -9 -519 -18 -672 -19
-79 -1 -143 -5 -143 -9 0 -7 1972 -10 5635 -9 729 0 976 6 1075 26 3 0 25 10
50 21 51 24 88 58 133 124 17 25 35 50 40 55 59 70 245 390 272 468 27 79 38
198 24 249 -4 14 -5 29 -2 31 2 3 41 -8 87 -23 45 -16 96 -30 114 -33 17 -3
34 -7 39 -10 4 -3 28 -8 53 -11 25 -3 56 -8 70 -11 14 -3 50 -8 80 -10 30 -3
76 -7 103 -10 85 -9 387 -12 387 -4 0 4 -4 11 -10 14 -5 3 -10 2 -10 -2 0 -5
-9 -9 -20 -10 -11 -1 -18 2 -16 6 3 4 -23 9 -57 10 -34 1 -64 5 -67 9 -3 4
-14 7 -25 8 -11 1 -36 4 -55 7 -19 3 -56 9 -82 12 -27 4 -48 12 -48 17 0 5 -4
7 -9 4 -4 -3 -23 -1 -42 5 -19 5 -41 12 -49 14 -8 2 -27 8 -42 14 -16 6 -28 8
-28 5 0 -4 -6 -2 -12 3 -13 10 -61 24 -74 22 -4 0 -10 3 -13 8 -3 4 -30 19
-58 32 -29 14 -53 28 -53 33 0 4 -3 7 -7 6 -10 -3 -127 63 -131 74 -2 4 -8 8
-14 8 -11 0 -255 182 -295 219 -12 12 -25 21 -28 21 -7 0 -131 96 -175 136
-19 17 -89 76 -155 130 -66 54 -125 103 -131 109 -6 5 -25 21 -43 35 -18 14
-38 30 -45 35 -13 11 -27 19 -136 82 -65 38 -96 51 -170 70 -28 8 -94 12 -260
18 -161 6 -4065 14 -4085 9z"/>
</g>
</svg>
